<?xml version="1.0" standalone="no"?>
<!DOCTYPE svg PUBLIC "-//W3C//DTD SVG 1.1//EN" "http://www.w3.org/Graphics/SVG/1.1/DTD/svg11.dtd" >
<!--
2013-9-30: Created.
-->
<svg>
<metadata>
Created by iconfont
</metadata>
<defs>

<font id="iconfont" horiz-adv-x="1024" >
  <font-face
    font-family="iconfont"
    font-weight="500"
    font-stretch="normal"
    units-per-em="1024"
    ascent="896"
    descent="-128"
  />
    <missing-glyph />
    
    <glyph glyph-name="x" unicode="x" horiz-adv-x="1001"
d="M281 543q-27 -1 -53 -1h-83q-18 0 -36.5 -6t-32.5 -18.5t-23 -32t-9 -45.5v-76h912v41q0 16 -0.5 30t-0.5 18q0 13 -5 29t-17 29.5t-31.5 22.5t-49.5 9h-133v-97h-438v97zM955 310v-52q0 -23 0.5 -52t0.5 -58t-10.5 -47.5t-26 -30t-33 -16t-31.5 -4.5q-14 -1 -29.5 -0.5
t-29.5 0.5h-32l-45 128h-439l-44 -128h-29h-34q-20 0 -45 1q-25 0 -41 9.5t-25.5 23t-13.5 29.5t-4 30v167h911zM163 247q-12 0 -21 -8.5t-9 -21.5t9 -21.5t21 -8.5q13 0 22 8.5t9 21.5t-9 21.5t-22 8.5zM316 123q-8 -26 -14 -48q-5 -19 -10.5 -37t-7.5 -25t-3 -15t1 -14.5
t9.5 -10.5t21.5 -4h37h67h81h80h64h36q23 0 34 12t2 38q-5 13 -9.5 30.5t-9.5 34.5q-5 19 -11 39h-368zM336 498v228q0 11 2.5 23t10 21.5t20.5 15.5t34 6h188q31 0 51.5 -14.5t20.5 -52.5v-227h-327z" />
    

    
    <glyph glyph-name="chushihuashujuku" unicode="&#58941;" d="M463.168-153.696 132.48-153.696c-40.96 0-74.176 33.216-74.176 74.176l0 179.904 258.688 0C327.616-3.936 382.72-95.072 463.168-153.696zM316.864 172.96c10.304 104.128 65.024 195.2 144.96 254.016L58.368 426.976l0-254.016L316.864 172.96zM965.632 348.896 965.632 427.04l-77.824 0C917.632 405.088 943.872 378.784 965.632 348.896zM965.568 679.52c0 40.96-33.216 74.176-74.176 74.176L132.416 753.696c-40.96 0-74.176-33.216-74.176-74.176L58.24 499.68l907.328 0L965.568 679.52zM965.696 137.184c0-19.2-1.92-38.464-5.696-57.28-1.088-5.184-5.568-8.896-10.88-8.896L901.76 71.008c-4.8-16.448-11.392-32.384-19.648-47.424l33.536-33.6c3.712-3.712 4.352-9.536 1.408-13.888-21.504-32.256-48.768-59.52-81.024-81.024-4.352-2.88-10.24-2.304-13.888 1.408l-33.6 33.536c-15.04-8.32-30.976-14.912-47.424-19.648l0-47.424c0-5.248-3.712-9.792-8.896-10.88-18.88-3.776-38.144-5.696-57.28-5.696S636.416-151.776 617.536-148c-5.184 1.088-8.896 5.568-8.896 10.88l0 47.424c-16.448 4.8-32.384 11.392-47.424 19.648l-33.6-33.536c-3.712-3.776-9.536-4.352-13.888-1.408-16.064 10.688-31.04 22.976-44.544 36.48-13.504 13.504-25.792 28.48-36.48 44.544-2.88 4.352-2.304 10.24 1.408 13.888l33.536 33.536c-8.32 15.04-14.912 30.976-19.648 47.424L400.512 70.88c-5.248 0-9.792 3.712-10.88 8.896C385.856 98.656 384 117.92 384 137.12c0 19.2 1.92 38.528 5.696 57.408C390.72 199.648 395.264 203.36 400.512 203.36l47.424 0c4.8 16.448 11.392 32.384 19.648 47.424L434.112 284.32C430.336 288.032 429.76 293.856 432.704 298.208 443.392 314.272 455.616 329.248 469.12 342.688c0 0.064 0.064 0.192 0.064 0.192 13.504 13.504 28.48 25.792 44.544 36.48 4.352 2.88 10.24 2.304 14.016-1.408l33.536-33.536c15.04 8.32 30.976 14.912 47.424 19.648L608.704 411.488c0 5.248 3.712 9.792 8.896 10.88 37.696 7.488 76.928 7.488 114.624 0 5.184-1.088 8.896-5.568 8.896-10.88L741.12 364c16.448-4.8 32.384-11.392 47.424-19.648l33.536 33.536c3.776 3.712 9.664 4.352 14.016 1.408 16.064-10.688 31.04-22.976 44.544-36.48 13.504-13.504 25.792-28.48 36.48-44.544 2.88-4.352 2.304-10.24-1.408-13.888L882.048 250.72c8.32-15.04 14.912-30.976 19.648-47.424l47.424 0c5.248 0 9.856-3.712 10.88-8.832C963.84 175.648 965.696 156.384 965.696 137.184zM758.08 137.12c0 45.888-37.312 83.264-83.264 83.264-45.888 0-83.264-37.312-83.264-83.264 0-45.888 37.312-83.264 83.264-83.264C720.768 53.856 758.08 91.232 758.08 137.12z"  horiz-adv-x="1024" />

    
    <glyph glyph-name="feiji" unicode="&#58998;" d="M437.51303-98.130579l40.420595 0c0 0 0.511653 179.122587 0 192.681394s5.348821 28.418236 11.256368 35.304064c5.90857 6.885827 448.719768 522.910491 448.719768 522.910491S815.694255 28.21192 814.067198 19.931327c-1.257643-6.393617-5.434779-9.121751-11.234879-7.245008-6.997368 2.2656-262.47804 81.864496-262.47804 81.864496l-12.982686-39.397289c0 0 242.571664-76.187193 266.762623-83.399455 26.605961-7.930623 54.235229 9.209756 59.863413 39.397289 4.644787 24.90625 131.175575 668.910703 133.031852 680.496575 1.853208 11.583826 6.979972 27.970028-12.515035 37.379329-14.432711 6.966669-31.828916-8.045233-31.828916-8.045233l-5.458315 10.576893c0 0-820.094984-437.890118-849.344145-453.665407s-27.951609-49.001017-3.41068-56.965409c24.540929-7.963369 272.199449-88.344071 272.199449-88.344071l12.621459 38.885636-244.910942 78.794577 765.433036 409.66324c0 0-409.322479-476.860688-426.207032-496.303506s-26.383904-39.653115-26.350135-65.23577C437.290973 72.803511 437.51303-98.130579 437.51303-98.130579z"  horiz-adv-x="1024" />

    
    <glyph glyph-name="gongyingshang" unicode="&#58895;" d="M545.011 53.078l-8.698-0.537c-1.86-0.115-3.718-0.24-5.576-0.365-6.393-0.431-12.43-0.838-18.531-0.838-6.101 0-12.138 0.407-18.53 0.838-1.859 0.125-3.718 0.25-5.579 0.365l-8.697 0.537L338.09-188.074c-23.062 25.735-73.507 82.008-123.638 137.801l-3.114 3.466-4.563 0.942c-75.081 15.495-150.083 30.641-184.5 37.568L175.686 253.54l-3.432 6.871c-25.913 51.879-39.052 107.105-39.052 164.146 0 50.363 10.008 99.211 29.745 145.188 19.073 44.43 46.386 84.337 81.178 118.614 34.808 34.291 75.343 61.213 120.479 80.019 46.737 19.473 96.397 29.346 147.601 29.346 51.191 0 100.845-9.873 147.579-29.346 45.136-18.807 85.672-45.729 120.482-80.02 34.797-34.278 62.113-74.186 81.19-118.614 19.741-45.979 29.752-94.827 29.752-145.188 0-56.989-13.141-112.217-39.056-164.151l-3.428-6.869 153.413-261.842c-34.41-6.938-109.414-22.102-184.497-37.56l-4.567-0.94-3.117-3.469c-50.13-55.793-100.575-112.065-123.638-137.801L545.011 53.078zM230.229-16.958c44.969-43.681 92.4-88.703 92.883-89.162l12.956-12.294 103.484 176.615-18.496 4.509c-83.853 20.443-158.848 69.287-211.172 137.534l-12.821 16.723L84.413 24.742l17.546-5.039C102.609 19.517 166.549 1.158 230.229-16.958zM814.522 200.189c-52.274-68.232-127.269-117.075-211.169-137.531l-18.498-4.51 103.487-176.561 12.953 12.292c0.483 0.459 47.915 45.481 92.884 89.162 63.676 18.113 127.611 36.421 128.261 36.606l17.563 5.03L827.343 216.923 814.522 200.189zM512.205 762.538c-184.077 0-333.834-150.033-333.834-334.449 0-184.443 149.757-334.499 333.834-334.499 184.076 0 333.834 150.056 333.834 334.499C846.039 612.505 696.281 762.538 512.205 762.538zM512.205 218.131c-115.687 0-209.805 94.119-209.805 209.805S396.518 637.74 512.205 637.74c56.041 0 108.726-21.818 148.35-61.437 39.63-39.623 61.455-92.314 61.455-148.368C722.01 312.25 627.892 218.131 512.205 218.131zM512.205 602.093c-96.031 0-174.158-78.126-174.158-174.157s78.127-174.157 174.158-174.157c96.03 0 174.156 78.126 174.156 174.157S608.235 602.093 512.205 602.093z"  horiz-adv-x="1025" />

    
    <glyph glyph-name="duihao" unicode="&#58901;" d="M394.297274-50.823134c-5.568832 0.002047-10.807137 2.173502-14.748912 6.114255L138.198525 196.640957c-3.924379 3.922333-6.084579 9.156544-6.082532 14.732539 0.002047 5.580089 2.165316 10.815323 6.092765 14.742772 3.941775 3.941775 9.174963 6.113231 14.735609 6.113231 5.559623 0 10.791787-2.170432 14.731516-6.111185l226.607064-226.607064 462.011492 462.011492c3.936659 3.938706 9.166777 6.107091 14.7264 6.107091 5.565762 0 10.803044-2.173502 14.746866-6.117324 3.942799-3.942799 6.114255-9.178033 6.116301-14.743796 0.002047-5.560646-2.166339-10.79281-6.105045-14.729469L409.032884-44.708879C405.091108-48.651678 399.85792-50.823134 394.297274-50.823134z"  horiz-adv-x="1024" />

    
    <glyph glyph-name="xin" unicode="&#59002;" d="M511.797385 575.507662C397.387659 840.831516 72.229045 778.922515 70.072939 470.99433c-1.179872-169.123862 154.853857-232.355999 258.734786-299.957653 100.744495-65.563228 172.434258-155.26318 183.653787-193.465247 9.636474 37.426401 89.494267 129.656989 182.730765 195.304128 101.951997 71.77572 259.914658 130.833791 258.734786 299.957653C951.769932 781.511479 620.941178 830.245414 511.797385 575.507662z"  horiz-adv-x="1024" />

    
    <glyph glyph-name="bag" unicode="&#58900;" d="M921.934 136.577h-522.13c-46.696 0-71.566 20.003-84.207 36.782-13.646 18.114-16.090 36.050-16.325 38.036l-59.658 487.896-0.448 2.944c-5.416 35.748-11.556 76.265-75.831 76.265l-77.999 0c-8.010 0-14.503 6.494-14.503 14.503s6.494 14.503 14.503 14.503h78c38.48 0 66.653-12.463 83.733-37.042 14.193-20.423 17.844-44.522 20.778-63.885l0.534-3.556 59.686-488.131c0.064-0.45 1.948-12.99 11.444-25.050 12.677-16.098 32.962-24.262 60.292-24.262h522.13c8.010 0 14.503-6.493 14.503-14.503-0.001-8.007-6.493-14.501-14.503-14.501zM766.926 241.81h-363.348c-8.010 0-14.503 6.494-14.503 14.503 0 8.010 6.494 14.503 14.503 14.503h363.348c80.665 0 90.7 48.474 91.22 51.337l47.951 330.869h-545.595c-8.010 0-14.503 6.494-14.503 14.503s6.494 14.503 14.503 14.503h579.108l-52.783-364.211c-0.323-2.15-3.544-20.842-20.386-39.446-15.1-16.68-44.621-36.562-99.514-36.562zM363.064-49.585c-40.779 0-73.954 33.175-73.954 73.953 0 40.791 33.176 73.977 73.954 73.977 40.791 0 73.978-33.186 73.978-73.977 0-40.779-33.186-73.953-73.978-73.953zM363.064 69.338c-24.783 0-44.947-20.174-44.947-44.97 0-24.783 20.163-44.947 44.947-44.947 24.797 0 44.97 20.163 44.97 44.947 0.001 24.796-20.173 44.97-44.97 44.97zM840.185-49.585c-40.791 0-73.978 33.175-73.978 73.953 0 40.791 33.187 73.977 73.978 73.977 40.779 0 73.953-33.186 73.953-73.977-0.001-40.779-33.176-73.953-73.953-73.953zM840.185 69.338c-24.797 0-44.971-20.174-44.971-44.97 0-24.783 20.174-44.947 44.971-44.947 24.783 0 44.947 20.163 44.947 44.947 0 24.796-20.163 44.97-44.947 44.97z"  horiz-adv-x="1024" />

    
    <glyph glyph-name="daochu" unicode="&#59351;" d="M916.012543 316.019723c-24.781406 0-44.868907-20.087501-44.868907-44.868907l0-44.868907 0-9.05933c-0.055259-94.91165-3.656273-170.418344-179.481767-170.418344L332.707544 46.804235c-181.384094 0-179.476651 80.356143-179.476651 179.477674L153.230893 450.627467c-12.665461 140.954289 53.763484 171.884742 134.61286 178.052209l0 0.11768 2.696412 0c24.781406 0 44.864814 20.087501 44.864814 44.868907 0 24.781406-20.083407 45.892213-44.864814 45.892213l-2.696412-0.119727 0 0.404206-44.868907 0c-99.125625 0-179.481767-80.352049-179.481767-179.476651l0-403.823232c0-99.120508 80.356143-179.476651 179.481767-179.476651L781.400706-42.933579c99.125625 0 179.481767 80.356143 179.481767 179.476651L960.882474 271.150816C960.882474 295.932222 940.79395 316.019723 916.012543 316.019723zM220.543975 296.784636c0-45.013193 7.829316-88.087221 21.519106-128.200824 50.868551 149.311631 187.535187 256.405741 348.660888 256.405741l0-64.095807c0-24.288173 13.196557-46.439682 34.087353-57.343009 8.740058-4.504594 18.203594-6.762007 27.585265-6.762007 13.088086 0 26.145473 4.378727 37.007869 12.837376L936.195212 501.921713c15.547091 12.079106 24.673959 31.076786 24.673959 51.263547 0 20.182668-9.126868 39.184441-24.673959 51.258431L689.405479 796.753625c-10.854209 8.480138-23.919782 12.828167-37.007869 12.828167-9.381671 0-18.845207-2.220574-27.585265-6.766101-20.890796-10.849092-34.087353-33.04665-34.087353-57.343009l0-64.095807C386.30423 681.376874 220.543975 509.172861 220.543975 296.784636z"  horiz-adv-x="1024" />

    
    <glyph glyph-name="wanglaimingxi" unicode="&#59003;" d="M515.475963 886.605505C237.901505 886.605505 12.917431 661.597945 12.917431 384.061064c0-277.534532 224.988771-502.539743 502.558532-502.539743 277.543927 0 502.525651 225.005211 502.525651 502.539743C1018.001615 661.597945 793.01989 886.605505 515.475963 886.605505zM477.209835 101.44411l-65.651083 0 0 24.052257 65.651083 0L477.209835 101.44411zM477.209835 142.96778l-65.651083 0 0 24.049908 65.651083 0L477.209835 142.96778zM477.212183 189.031339 411.643303 189.031339 411.643303 534.213284l-76.652037 0 142.223266 141.732404L477.214532 189.031339zM553.71156 676.42011l65.676917 0 0-24.033468L553.71156 652.386642 553.71156 676.42011zM553.71156 634.919927l65.676917 0 0-24.033468L553.71156 610.886459 553.71156 634.919927zM553.695119 101.902092 553.695119 588.835229l65.590018 0L619.285138 244.045505l76.644991 0L553.695119 101.902092z"  horiz-adv-x="1031" />

    
    <glyph glyph-name="552cd7015c801" unicode="&#58944;" d="M805.502126 712.393285 219.370755 712.393285c-41.919738 0-75.892481-33.972742-75.892481-75.891458l0-501.798661c0-41.921785 33.971719-75.892481 75.892481-75.892481l586.131371 0c41.920762 0 75.891458 33.970696 75.891458 75.892481l0 84.291778c-0.063445 10.994402-8.975419 19.891026-19.971867 19.891026-10.993378 0-19.909445-8.895601-19.97289-19.891026l0-0.040932c0-0.040932 0-0.040932 0-0.084934 0 0 0 0 0-0.039909l0-80.135108c0-22.067598-17.889439-39.940664-39.939641-39.940664L440.621834 98.753397c-0.021489 0-0.021489 0-0.042979 0L223.364719 98.753397c-22.051225 0-39.943734 17.873066-39.943734 39.940664L183.420985 450.458621l228.66391-0.329505 0.020466-172.412768c0-11.612479 9.429767-21.084201 21.083178-21.084201 3.635807 0 6.888897 1.152243 9.872858 2.799766l0.196475-0.370437 79.731926 44.308135 77.094866-46.490847c0.473791-0.329505 0.74292-0.823761 1.25662-1.112334 10.028401-5.970992 22.936385-2.63399 28.887934 7.370875 2.243087 3.829212 2.778276 7.989975 2.508123 12.106736 0.104377 0.864694 0.497327 1.605567 0.497327 2.471284l0 0.040932 0.019443 0-0.019443 172.70134 208.216205-0.329505 0-114.517173c0-0.040932 0-0.081864 0-0.081864 0-11.035334 8.936533-19.971867 19.97289-19.971867 11.036357 0 19.971867 8.93551 19.971867 19.971867 0 0 0 0.040932 0 0.081864L881.39563 636.501828C881.393583 678.421566 847.422887 712.393285 805.502126 712.393285zM183.420985 492.624976 183.420985 632.507864c0 22.072715 17.892509 39.943734 39.943734 39.943734l188.679243 0 0.030699-180.15408L183.420985 492.624976zM533.460266 346.319819l-0.229221-0.37146c-6.474458 3.78828-14.649652 4.28356-21.49557 0.12382-0.760317-0.494257-1.204431-1.194198-1.895163-1.77032l-55.568596-30.884404-0.062422 359.034143L591.02431 672.451598l0.060375-360.88735L533.460266 346.319819zM841.449849 492.296495l-208.236672 0.328481-0.022513 179.825598 168.319543 0c22.050202 0 39.939641-17.871019 39.939641-39.943734L841.449849 492.296495z"  horiz-adv-x="1024" />

    
    <glyph glyph-name="biaodanxian" unicode="&#59029;" d="M832 768l-96 0L736 832l-86.4 0c-27.2 38.4-78.4 64-137.6 64-59.2 0-110.4-25.6-137.6-64L288 832l0-64-96 0c-70.4 0-128-57.6-128-128l0-640c0-70.4 57.6-128 128-128l640 0c70.4 0 128 57.6 128 128L960 640C960 710.4 902.4 768 832 768zM352 768l70.4 0c0 35.2 40 64 89.6 64 49.6 0 89.6-28.8 89.6-64L672 768l0-128L352 640 352 768zM896 0c0-35.2-28.8-64-64-64L192-64c-35.2 0-64 28.8-64 64L128 640c0 35.2 28.8 64 64 64l96 0 0-128 448 0 0 128 96 0c35.2 0 64-28.8 64-64L896 0zM736 128 288 128c-17.6 0-32-14.4-32-32 0-17.6 14.4-32 32-32l448 0c17.6 0 32 14.4 32 32C768 113.6 753.6 128 736 128zM736 288 288 288c-17.6 0-32-14.4-32-32 0-17.6 14.4-32 32-32l448 0c17.6 0 32 14.4 32 32C768 273.6 753.6 288 736 288zM736 448 288 448c-17.6 0-32-14.4-32-32 0-17.6 14.4-32 32-32l448 0c17.6 0 32 14.4 32 32C768 433.6 753.6 448 736 448z"  horiz-adv-x="1024" />

    
    <glyph glyph-name="iconxiangxiasanjiao" unicode="&#58922;" d="M540.584524 48.551018l348.888062 545.130561c6.713912 10.494005 7.136537 23.782659 1.074472 34.612309-6.089695 10.905374-17.670451 17.642822-30.220279 17.642822L162.696987 645.936711c-12.552897 0-24.130583-6.737448-30.220279-17.642822-2.843768-5.116531-4.266164-10.767228-4.266164-16.432251 0-6.326079 1.795902-12.664438 5.315052-18.180058l348.765265-545.130561c6.313799-9.870812 17.317411-15.872502 29.145807-15.872502C523.267113 32.679539 534.246165 38.680207 540.584524 48.551018L540.584524 48.551018zM434.852434 620.396012"  horiz-adv-x="1024" />

    
    <glyph glyph-name="sousuo" unicode="&#58914;" d="M1022.0288-84.578462 656.768 280.103385C787.971938 424.629169 776.290462 640.7168 636.658215 780.120615 566.910031 849.774277 474.184862 888.125046 375.542154 888.125046 276.891569 888.125046 184.1664 849.774277 114.418215 780.120615-29.536492 636.392369-29.536492 402.451692 114.418215 258.717538 184.1664 189.071754 276.891569 150.719015 375.542154 150.719015 468.046769 150.719015 547.237415 176.935385 615.264492 238.601846L980.48-126.030769 1022.0288-84.578462 1022.0288-84.578462ZM148.751754 294.313354C23.951754 418.686031 23.951754 621.099323 148.751754 745.472 209.234708 805.722585 289.604923 838.908062 375.128615 838.908062 460.654277 838.908062 541.022523 805.722585 601.507446 745.472 726.329108 621.099323 726.329108 418.686031 601.507446 294.313354 541.022523 234.056862 460.654277 200.877292 375.128615 200.877292 289.604923 200.895015 209.216985 234.080492 148.751754 294.313354L148.751754 294.313354Z"  horiz-adv-x="1024" />

    
    <glyph glyph-name="gengduo" unicode="&#59207;" d="M1299.692308 817.230769 1299.692308 896 0 896 0 817.230769 1299.692308 817.230769ZM1299.692308 344.615385 1299.692308 423.384615 0 423.384615 0 344.615385 1299.692308 344.615385ZM1299.692308-128 1299.692308-49.230769 0-49.230769 0-128 1299.692308-128Z"  horiz-adv-x="1300" />

    
    <glyph glyph-name="xiangmu" unicode="&#58936;" d="M1023.220241 2.078591 1023.220241 642.408351c0 76.840062-71.14741 71.14741-71.14741 71.14741L550.799678 713.555761c-22.76754 0-36.996612 11.383258-36.996612 11.383258s-17.075911 28.459169-48.380894 73.993225c-28.459169 51.226708-65.455781 42.688241-65.455781 42.688241L89.76135 841.620485c-88.223321 0-88.223321-82.531692-88.223321-82.531692l0-751.320621c0-93.91495 71.14741-82.531692 71.14741-82.531692l887.924835 0C1034.604522-74.761472 1023.220241 2.078591 1023.220241 2.078591zM234.968499 172.164361c-28.291346 0-51.226708 22.934339-51.226708 51.226708 0 28.291346 22.934339 51.226708 51.226708 51.226708s51.226708-22.934339 51.226708-51.226708C286.194184 195.099722 263.259846 172.164361 234.968499 172.164361zM234.968499 371.378541c-28.291346 0-51.226708 22.934339-51.226708 51.226708 0 28.291346 22.934339 51.226708 51.226708 51.226708s51.226708-22.934339 51.226708-51.226708C286.194184 394.31288 263.259846 371.378541 234.968499 371.378541zM789.856285 167.141974 448.346261 167.141974c-28.459169 0-51.226708 22.76754-51.226708 51.226708 0 28.459169 22.76754 51.226708 51.226708 51.226708l341.509001 0c28.459169 0 51.226708-22.76754 51.226708-51.226708C841.08197 189.90849 818.314431 167.141974 789.856285 167.141974zM789.856285 369.200946 448.346261 369.200946c-28.459169 0-51.226708 22.76754-51.226708 51.226708 0 28.459169 22.76754 51.226708 51.226708 51.226708l341.509001 0c28.459169 0 51.226708-22.76754 51.226708-51.226708C841.08197 391.968485 818.314431 369.200946 789.856285 369.200946z"  horiz-adv-x="1024" />

    
    <glyph glyph-name="tongji" unicode="&#59136;" d="M186.181818 337.454545c0 23.272727 18.618182 46.545455 46.545455 46.545455s46.545455-23.272727 46.545454-46.545455v-186.181818c0-23.272727-18.618182-46.545455-46.545454-46.545454s-46.545455 23.272727-46.545455 46.545454v186.181818z m279.272727 372.363637c0 27.927273 18.618182 46.545455 46.545455 46.545454s46.545455-18.618182 46.545455-46.545454v-558.545455c0-27.927273-18.618182-46.545455-46.545455-46.545454s-46.545455 18.618182-46.545455 46.545454v558.545455z m-325.818181-698.181818c0 27.927273 18.618182 46.545455 46.545454 46.545454h651.636364c27.927273 0 46.545455-18.618182 46.545454-46.545454s-18.618182-46.545455-46.545454-46.545455h-651.636364c-27.927273 0-46.545455 18.618182-46.545454 46.545455z m605.090909 512c0 23.272727 18.618182 46.545455 46.545454 46.545454s46.545455-23.272727 46.545455-46.545454v-372.363637c0-23.272727-18.618182-46.545455-46.545455-46.545454s-46.545455 23.272727-46.545454 46.545454v372.363637z"  horiz-adv-x="1024" />

    
    <glyph glyph-name="message" unicode="&#59055;" d="M208.213 691.2h614.4c17.067 0 34.133-6.827 47.787-10.24l-317.44-276.48c-23.893-17.067-51.2-17.067-75.093 0l-320.853 276.48c17.067 10.24 27.307 10.24 51.2 10.24zM102.4 175.787v413.013c0 17.067 6.827 40.96 17.067 54.613l211.627-187.733c23.893-23.893 30.72-58.027 6.827-81.92l-215.040-249.173c-13.653 17.067-20.48 34.133-20.48 51.2zM822.613 76.8h-614.4c-17.067 0-40.96 6.827-51.2 17.067l221.867 252.587c23.893 23.893 58.027 23.893 81.92 6.827l40.96-34.133c6.827-6.827 10.24-6.827 17.067-6.827s10.24 0 17.067 6.827l40.96 34.133c23.893 23.893 58.027 17.067 81.92-6.827l221.867-252.587c-23.893-10.24-40.96-17.067-58.027-17.067zM921.6 175.787c0-17.067-6.827-34.133-10.24-47.787l-221.867 242.347c-23.893 23.893-17.067 64.853 6.827 81.92l211.627 187.733c10.24-10.24 17.067-34.133 17.067-54.613v-409.6z"  horiz-adv-x="1024" />

    
    <glyph glyph-name="star_key" unicode="&#59047;" d="M593.6 457.9c46.4 21.5 91.4 43.2 133.7 64.6 42.3 21.7 76.2 37.6 101.3 47.6 25.1 9.8 45.2 15 60.4 15 25.1 0 46.7-8.2 65.1-25.4 18.4-16.7 27.5-38 27.5-63 0-14.3-4.6-29.4-13.5-44.8-8.9-15.5-18.5-25.4-28.5-29.7-92.7-36.4-195-63.2-306.3-79.8 20.2-18.4 45-43.4 74.5-74.1 29.5-31.2 45-47.6 46.2-49.7 10.9-15 25.9-33.7 45.3-56 19.4-22.4 32.9-39.7 40.4-52.3 7.5-12.8 11.3-27.8 11.3-45.8 0-23-8.6-43.2-25.9-60.4-17.1-17.3-39.6-26-66.9-26-27.3 0-57.9 21.4-92.2 63.6-34.1 42.3-78.3 118.6-132.2 228.6-54.6-99-91.4-164.6-109.9-196.3-18.7-31.4-36.7-55.3-53.9-71.6-17.3-16.1-37-24.3-59.4-24.3-26.6 0-48.8 9.1-66.5 27.5-17.3 18.4-26.3 38.2-26.3 58.8 0 19.4 3.5 34.1 10.8 44.1 66.2 89.8 135.1 168.2 207.1 234-60.4 9.5-114.2 20-161.7 31.4-47.5 11.7-98 28.4-151.1 50.8-8.7 4.4-17.1 14.3-25.4 29.7-8.1 15.2-12.1 29.6-12.1 42.5 0 25 9.1 46.2 27.5 63 18.4 17.1 39.3 25.4 63.2 25.4 17.3 0 38.8-5.2 64.7-15.6 25.8-10.5 58.6-25.5 98.5-45.3 40-19.8 85.5-41.9 136.5-66.4-9.3 45.3-17.1 97.4-23.2 155.8-6.1 58.6-9.1 98.7-9.1 120.4 0 26.6 8.4 49.2 25.2 68.5 17.3 18.8 38.8 28.3 65.4 28.3 26.1 0 47.3-9.5 64.2-28.5 17-19.3 25.4-44.5 25.4-76.2 0-8.6-1.4-25.6-3.9-51.3-2.2-25.6-6.1-56.4-10.7-92.6-4.6-36.2-9.9-77.9-15.5-124.5z"  horiz-adv-x="1024" />

    
    <glyph glyph-name="xuanze" unicode="&#58888;" d="M1008.64 419.84c0 5.12-5.12 5.12 0 0L921.6 558.08c-20.48 20.48-56.32 20.48-76.8 0-20.48-20.48-20.48-56.32 0-76.8l25.6-46.08h-307.2V742.4l46.08-25.6c20.48-20.48 56.32-20.48 76.8 0 20.48 20.48 20.48 56.32 0 76.8L547.84 880.64c-10.24 10.24-20.48 15.36-35.84 15.36s-25.6-5.12-35.84-15.36l-5.12-5.12L337.92 793.6c-20.48-20.48-20.48-56.32 0-76.8 20.48-20.48 56.32-20.48 76.8 0L460.8 742.4v-307.2H153.6l25.6 51.2c20.48 20.48 20.48 56.32 0 76.8-20.48 20.48-56.32 20.48-76.8 0L15.36 424.96c-10.24-10.24-15.36-25.6-15.36-35.84 0-15.36 5.12-25.6 15.36-40.96l5.12-5.12L102.4 209.92c20.48-20.48 56.32-20.48 76.8 0 20.48 20.48 20.48 56.32 0 76.8L153.6 332.8h307.2v-307.2l-51.2 25.6c-20.48 20.48-56.32 20.48-76.8 0-20.48-20.48-20.48-56.32 0-76.8l138.24-87.04c10.24-10.24 25.6-15.36 35.84-15.36 15.36 0 25.6 5.12 40.96 15.36l5.12 5.12 133.12 81.92c20.48 20.48 20.48 56.32 0 76.8-20.48 20.48-56.32 20.48-76.8 0l-46.08-25.6v307.2h307.2l-25.6-46.08c-20.48-20.48-20.48-56.32 0-76.8 20.48-20.48 56.32-20.48 76.8 0l87.04 138.24c10.24 10.24 15.36 25.6 15.36 40.96 0 10.24-5.12 20.48-15.36 30.72z"  horiz-adv-x="1024" />

    
    <glyph glyph-name="jixiao" unicode="&#59081;" d="M889.507 861.891H132.904c-55.215 0-100.128-44.913-100.128-100.127v-756.618c0-55.199 44.913-100.112 100.128-100.122h756.603c55.204 0 100.12 44.918 100.12 100.122V761.764C989.63 816.978 944.71 861.89 889.506 861.89zM820.754 89.86H201.688c-27.168 0-49.27 22.093-49.27 49.25 0 27.194 22.103 49.318 49.27 49.318h619.066c27.156 0 49.25-22.124 49.25-49.318 0-27.157-22.095-49.25-49.25-49.25z m0 282.28c-27.183 0-49.299 22.11-49.299 49.285V499.38L545.323 248.11l-185.72 171.99-121.31-134.81c-9.254-10.36-22.609-16.331-36.596-16.331a49.144 49.144 0 0 0-33.061 12.756c-9.703 8.7-15.463 20.774-16.149 33.933-0.692 13.13 3.763 25.75 12.543 35.524l188.236 209.133 185.686-172 171.165 190.185h-75.17c-27.156 0-49.25 22.107-49.25 49.281 0 27.172 22.094 49.278 49.25 49.278h185.777c3.666 0 6.684-0.567 8.87-1.108 2.011-0.302 5.187-0.888 8.731-2.251l0.153-0.06c3.85-1.52 6.72-3.311 8.426-4.448 2.041-1.132 4.56-2.724 7.195-5.173l0.484-0.45 0.982-1.057c2.48-2.274 4.272-4.978 5.716-7.25 1.188-1.61 2.95-4.131 4.465-7.591 1.392-3.138 2.095-5.992 2.506-8.034 0.686-2.66 1.565-6.233 1.65-10.771l0.1-207.422c0.002-27.185-22.093-49.294-49.248-49.294z"  horiz-adv-x="1024" />

    
    <glyph glyph-name="shangxiasanjiaoxing" unicode="&#58880;" d="M217.315 472.838c-23.498-23.505-5.002-65.121 26.974-65.121h534.066c33.139 0 50.463 41.6 26.974 65.121l-267.039 267.42c-15.397 15.429-38.138 15.413-53.557 0l-267.42-267.42zM805.561 291.882c23.498 23.505 5.002 65.121-26.974 65.121h-534.066c-33.139 0-50.463-41.6-26.974-65.121l267.036-267.42c15.397-15.429 38.138-15.413 53.557 0l267.423 267.42z"  horiz-adv-x="1024" />

    
    <glyph glyph-name="daochu1" unicode="&#58945;" d="M498.272 866.876l15.664-16.608c1.76-1.868 177.052-187.684 268.18-284.36l-40.504-39.616c-75.076 79.648-197.08 209.532-242.296 257.464C422.736 702.576 352.328 630.068 275.72 548.92l-38.544 41.264c94.56 100.136 243.936 258.496 245.436 260.084l15.66 16.608zM526.576 158.148l0.072 665.204-54.592 0.008-0.08-665.2 54.6-0.012zM876.88-98.88c61.772 0 121.828 56.824 121.828 122.276v208.048l-54.104-3.288v-208.336c0-39.556-31.444-61.164-68.788-61.164l-737.38 0.608c-37.336 0-59.828 20.112-59.828 59.664v209.228H25.296v-208.336c0-65.452 50.252-118.7 112.02-118.7H876.88z"  horiz-adv-x="1024" />

    
    <glyph glyph-name="kehu" unicode="&#58882;" d="M265.826 627.924c0-135.706 110.054-245.622 245.622-245.622s245.622 110.054 245.622 245.622c0.138 135.568-109.916 245.622-245.622 245.622s-245.622-109.916-245.622-245.622zM589.507 376.233l-77.921-77.921-78.059 77.921c-234.175-37.513-314.578-240.382-314.578-485.177h786.515c0 244.795-81.782 447.664-315.957 485.177M511.449-38.745l-84.127 84.127 84.127 252.517 84.127-252.656-84.127-83.988z"  horiz-adv-x="1024" />

    
    <glyph glyph-name="daihuikuan" unicode="&#58890;" d="M512.002 832c-247.424 0-448-200.576-448-448 0-247.421 200.576-448 448-448 247.421 0 447.997 200.579 447.997 448-0.001 247.424-200.577 448-447.997 448z m0-832c-212.077 0-384 171.923-384 384s171.923 384 384 384c212.074 0 383.997-171.923 383.997-384S724.075 0 512.002 0z m224 416.003h-192v224c0 17.67-14.33 31.997-32 31.997-17.674 0-32-14.326-32-31.997v-288h256c17.674 0 32 14.326 32 32s-14.327 32-32 32z"  horiz-adv-x="1024" />

    
    <glyph glyph-name="fukuan" unicode="&#58933;" d="M979.456 221.696c-21.504-4.608-42.496-11.264-64-16.384 37.888 84.992 48.64 181.76 28.16 272.384-21.504 100.352-79.872 192-160.256 254.976-77.824 60.928-176.128 95.744-274.944 94.72-72.704 0.512-145.92-17.92-209.92-52.736-97.28-51.712-174.08-141.312-210.432-246.272-32.256-93.184-32.256-197.632 0-290.816 28.672-83.456 82.944-157.696 153.6-210.432 83.968-63.488 190.976-95.744 295.936-88.064 92.16 5.12 181.76 41.472 253.952 99.84-13.824 14.336-28.16 28.16-42.496 42.496-48.64-38.4-106.496-66.56-167.424-77.824-86.016-16.896-178.176-2.56-254.976 39.936-79.36 43.52-142.336 115.2-174.592 199.68-34.304 88.064-34.304 188.416 0 275.968 29.696 77.824 85.504 144.896 156.16 188.416C380.416 752.64 467.968 772.096 552.96 762.88c73.216-7.68 143.872-37.376 200.704-83.968 77.312-61.952 128-155.648 138.752-253.952 7.168-67.584-1.024-137.216-29.696-199.168-7.68 25.088-13.312 50.688-21.504 75.264-3.584 11.264-14.848 18.944-26.112 19.968-18.944 1.536-36.352-18.432-30.72-36.864 14.336-55.296 29.696-110.592 44.032-165.888 55.808 10.752 110.592 26.112 165.376 41.472 7.68 2.56 15.872 6.144 19.968 13.312 11.264 21.504-9.216 54.272-34.304 48.64zM647.168 514.048c15.872 14.848 6.144 44.032-14.336 48.64-13.312 5.12-26.112-4.096-35.328-13.312L522.24 474.112l-76.8 76.8c-8.704 9.728-23.04 16.896-35.84 10.24-18.944-7.168-27.136-34.304-12.288-49.152 26.624-27.648 53.76-53.76 80.896-80.896l-10.24-10.24c-19.968-1.024-40.448 2.56-59.904-2.048-24.064-9.216-24.064-46.08 0-55.296 26.624-6.656 54.784-1.536 82.432-3.072v-39.936c-24.576-0.512-49.664 1.024-74.24-0.512-15.36-1.024-27.648-15.872-26.624-31.232 0-15.872 15.872-29.696 31.232-28.672 23.04-0.512 46.08 0 69.632 0 0.512-24.064-0.512-48.128 0-72.192 0.512-14.336 12.8-27.648 27.648-28.672 16.384-2.048 31.744 12.288 32.768 28.16 1.024 24.064 0 48.128 0 72.192 23.04 0.512 46.08-0.512 69.632 0 17.408-1.024 34.304 15.872 31.232 33.792-1.536 15.36-16.384 27.648-31.744 26.624-23.04 0.512-46.08 0-69.12 0v39.936c26.112 1.024 52.224-2.048 77.824 1.536 25.088 5.12 31.232 43.008 7.68 54.784-19.968 8.192-42.496 2.048-63.488 4.096-3.072 3.584-5.632 7.168-8.192 10.752 27.136 28.672 55.296 55.296 82.432 82.944z"  horiz-adv-x="1024" />

    
    <glyph glyph-name="chanpin" unicode="&#59016;" d="M498.036364 451.490909c-20.945455 0-41.890909 4.654545-58.181819 11.636364L118.690909 621.381818c-20.945455 11.636364-34.909091 27.927273-34.909091 46.545455s11.636364 37.236364 34.909091 48.872727L442.181818 882.036364c18.618182 9.309091 39.563636 13.963636 62.836364 13.963636 20.945455 0 41.890909-4.654545 58.181818-11.636364L884.363636 726.109091c20.945455-11.636364 34.909091-27.927273 34.909091-46.545455s-11.636364-37.236364-34.909091-48.872727l-323.490909-165.236364c-18.618182-9.309091-39.563636-13.963636-62.836363-13.963636zM141.963636 670.254545l321.163637-158.254545c9.309091-4.654545 20.945455-6.981818 34.909091-6.981818s27.927273 2.327273 37.236363 6.981818l325.818182 165.236364-321.163636 158.254545c-9.309091 4.654545-20.945455 6.981818-34.909091 6.981818s-27.927273-2.327273-37.236364-6.981818l-325.818182-165.236364zM432.872727-128c-11.636364 0-23.272727 2.327273-34.909091 9.309091L109.381818 32.581818c-34.909091 16.290909-60.509091 53.527273-60.509091 83.781818V521.309091c0 27.927273 20.945455 48.872727 51.2 48.872727 11.636364 0 23.272727-2.327273 34.909091-9.309091l286.254546-151.272727c34.909091-16.290909 60.509091-53.527273 60.509091-83.781818v-404.945455c0-27.927273-20.945455-48.872727-48.872728-48.872727z m-11.636363 55.854545c2.327273-2.327273 4.654545-2.327273 6.981818-2.327272V325.818182c0 9.309091-11.636364 27.927273-30.254546 37.236363L109.381818 514.327273c-2.327273 2.327273-4.654545 2.327273-6.981818 2.327272v-400.290909c0-9.309091 11.636364-27.927273 30.254545-37.236363l288.581819-151.272728z m165.236363-55.854545c-27.927273 0-48.872727 20.945455-48.872727 48.872727V325.818182c0 30.254545 25.6 67.490909 60.509091 83.781818L884.363636 560.872727c11.636364 4.654545 23.272727 9.309091 34.909091 9.309091 27.927273 0 48.872727-20.945455 48.872728-48.872727v-404.945455c0-30.254545-25.6-67.490909-60.509091-83.781818l-286.254546-151.272727c-13.963636-6.981818-23.272727-9.309091-34.909091-9.309091zM907.636364 514.327273l-286.254546-151.272728c-18.618182-9.309091-30.254545-27.927273-30.254545-37.236363v-400.290909c2.327273 0 4.654545 2.327273 6.981818 2.327272L884.363636 79.127273c18.618182 9.309091 30.254545 27.927273 30.254546 37.236363V516.654545c-2.327273 0-4.654545-2.327273-6.981818-2.327272z"  horiz-adv-x="1024" />

    
    <glyph glyph-name="renyuan" unicode="&#58947;" d="M1102.769231 19.456a369.742769 369.742769 0 0 1-232.526769 343.512615 246.311385 246.311385 0 0 1 109.48923 204.957539 246.232615 246.232615 0 0 1-189.755077 239.852308 4.726154 4.726154 0 0 1-2.835692-0.236308c-1.260308 0.078769-2.441846 0.393846-3.702154 0.393846a42.141538 42.141538 0 0 1-6.537846-83.731692c3.544615-1.417846 8.192-2.520615 8.428308-2.599385a159.901538 159.901538 0 0 0-22.449231-308.775385l-0.315077-0.236307a47.261538 47.261538 0 0 1 1.102769-94.444308c0.157538-0.078769 0.315077-0.393846 0.551385-0.393846 149.504-15.202462 255.448615-142.887385 255.448615-298.299077a41.511385 41.511385 0 0 1 82.944-1.575385l0.157539 0.551385v0.236308 0.787692zM604.868923 356.036923a294.675692 294.675692 0 0 1 130.678154 245.129846A294.518154 294.518154 0 0 1 441.422769 896 294.518154 294.518154 0 0 1 147.298462 601.166769c0-102.242462 51.908923-192.196923 130.678153-245.129846A442.525538 442.525538 0 0 1 0-54.980923c0-10.476308 0.630154-20.795077 1.417846-31.113846a40.96 40.96 0 0 1 82.077539 0c0 1.260308-0.315077 2.441846-0.393847 3.702154a313.501538 313.501538 0 0 0-1.575384 27.411692c0 199.286154 161.161846 360.763077 359.896615 360.763077a360.211692 360.211692 0 0 0 359.817846-360.763077c0-9.609846-0.787692-19.062154-1.575384-28.435692 0.708923-24.733538 18.668308-42.535385 40.881231-42.535385a40.96 40.96 0 0 1 40.88123 39.857231c0.787692 10.24 1.339077 20.637538 1.339077 31.113846A442.525538 442.525538 0 0 1 604.947692 356.036923z m-163.446154 33.319385a211.574154 211.574154 0 0 0-211.259077 211.810461c0 116.972308 94.523077 211.731692 211.259077 211.731693a211.495385 211.495385 0 0 0 211.259077-211.731693c0-116.972308-94.601846-211.889231-211.259077-211.889231z"  horiz-adv-x="1103" />

    
    <glyph glyph-name="line" unicode="&#58881;" d="M472.615 896h78.769v-1024h-78.769v1024z"  horiz-adv-x="1024" />

    
    <glyph glyph-name="payment-o" unicode="&#58949;" d="M288 774.4h64V576h-64zM640 768h64v-198.4H640zM377.984 506.368l138.88-132.608-44.16-46.272-138.88 132.544zM598.4 503.872l46.336-44.096-128-134.4-46.336 44.032zM352 364.79999999999995h281.6v-64H352zM352 217.60000000000002h281.6v-64H352zM460.8 326.4h64v-236.8h-64zM800-38.39999999999998H192c-51.2 0-96 44.8-96 96V595.2c0 51.2 44.8 96 96 96h608c51.2 0 96-44.8 96-96v-537.6c0-51.2-38.4-96-96-96zM192 627.2c-19.2 0-32-19.2-32-32v-537.6c0-19.2 19.2-32 32-32h608c19.2 0 32 19.2 32 32V595.2c0 12.8-12.8 32-32 32H192z"  horiz-adv-x="1024" />

    
    <glyph glyph-name="add" unicode="&#58896;" d="M914.817 358.68899999999996h-805.635c-13.482 0-24.413 11.066-24.413 24.559s10.931 24.559 24.413 24.559h805.635c13.482 0 24.413-11.066 24.413-24.559s-10.931-24.559-24.413-24.559zM536.441 786.064v-805.635c0-13.482-11.066-24.413-24.559-24.413s-24.559 10.931-24.559 24.413v805.635c0 13.482 11.066 24.413 24.559 24.413s24.559-10.931 24.559-24.413z"  horiz-adv-x="1024" />

    
    <glyph glyph-name="bell" unicode="&#58917;" d="M919.456 137.61599999999999l-78.056 133.128V455.232a293.64 293.64 0 0 1-61.208 172.216 350.056 350.056 0 0 1-158.72 118.872l-1.128 0.376c-4.8 1.52-9.632 2.944-14.488 4.264v9.376c0 51.864-42.04 93.912-93.912 93.912-51.864 0-93.912-42.048-93.912-93.912v-8.624c-4.144-1.128-8.272-2.328-12.368-3.608l-0.8-0.24a349.472 349.472 0 0 1-161.48-118.776 294.312 294.312 0 0 1-62.344-173.76v-184.496L97.512 128.336a54.064 54.064 0 0 1 0-55.208 35.648 35.648 0 0 1 39.328-18.752h234.368a140.64 140.64 0 0 1 210.936-121.792 140.64 140.64 0 0 1 70.304 121.792h234.376a41.304 41.304 0 0 1 46.864 46.36 53.76 53.76 0 0 1-14.232 36.88m-407.44 666.128a44.384 44.384 0 0 0 44.856-41.296 346.832 346.832 0 0 1-15.184 2.48 25.04 25.04 0 0 1-6.472 0l-2.664 0.376a115.816 115.816 0 0 1-42.52 0l-2.296-0.328a26.856 26.856 0 0 1-6.704 0c-4.688-0.656-9.376-1.36-13.776-2.2a44.344 44.344 0 0 0 44.76 40.968m0-842.424a103.12 103.12 0 0 0-93.744 93.104h187.504a103.488 103.488 0 0 0-93.76-93.104m374.992 139.968H137.024c-2.856 0 4.688-6.8 3.144-4.688a7.752 7.752 0 0 0 0 7.872l86.808 148.032c2.072 3.576 3.168 7.632 3.192 11.768V455.048a282.88 282.88 0 0 0 191.008 247.68 508.72 508.72 0 0 0 60.184 14.064c1.712-0.192 3.448-0.192 5.16 0 3.792 0.376 7.36 0.888 10.776 1.36a96.56 96.56 0 0 0 14.064 1.448c4.712-0.128 9.416-0.616 14.056-1.448 3.432-0.472 6.984-0.984 10.832-1.36 1.56-0.168 3.136-0.168 4.688 0a531.296 531.296 0 0 0 64.128-15.328 283.424 283.424 0 0 0 187.504-246.416v-190.776c0.016-4.136 1.112-8.184 3.176-11.768l82.792-141.136c1.152-1.984 2.584-3.792 4.264-5.352a7.28 7.28 0 0 0 2.24-5.44c-0.184-3.976 6.656 0.712 1.968 0.712"  horiz-adv-x="1024" />

    
    <glyph glyph-name="xiaoxi" unicode="&#58906;" d="M1461.788852 750.072434c14.592757 65.667405-36.481892 131.33481-102.149296 145.927566H184.922647C90.069728 896 2.513189 852.22173 2.513189 750.072434v-729.637832c-14.592757-65.667405 36.481892-131.33481 102.149296-145.927566H1315.861286c65.667405-14.592757 131.33481 36.481892 145.927566 102.149296V750.072434zM148.440755 823.036217h1167.420531c29.185513 7.296378 65.667405-14.592757 72.963783-43.77827V750.072434l-656.674049-364.818916-656.674048 364.818916c-7.296378 29.185513 14.592757 65.667405 43.77827 72.963783H148.440755z m1240.384314-802.601615c7.296378-29.185513-14.592757-65.667405-43.77827-72.963783H148.440755c-29.185513-7.296378-65.667405 14.592757-72.963783 43.77827V677.10865l656.674048-364.818915 656.674049 364.818915v-656.674048z"  horiz-adv-x="1467" />

    
    <glyph glyph-name="lianxiren" unicode="&#58951;" d="M830.8 896h-576c-70.7 0-128-55.3-128-123.6V578h-30c-17.4 0-31.5-14.1-31.5-31.5v-1c0-17.4 14.1-31.5 31.5-31.5h30v-131h-30c-17.4 0-31.5-14.1-31.5-31.5v-1c0-17.4 14.1-31.5 31.5-31.5h30v-128h-30c-17.4 0-31.5-14.1-31.5-31.5v-1c0-17.4 14.1-31.5 31.5-31.5h30v-131.4c0-68.3 57.3-123.6 128-123.6h576c70.7 0 128 55.3 128 123.6V772.4C958.8 840.7 901.5 896 830.8 896z m64-898.2c0-34.1-28.7-61.8-64-61.8h-576c-35.4 0-64 27.7-64 61.8V127h29c17.4 0 31.5 14.1 31.5 31.5v1c0 17.4-14.1 31.5-31.5 31.5h-29V319h29c17.4 0 31.5 14.1 31.5 31.5v1c0 17.4-14.1 31.5-31.5 31.5h-29V514h29c17.4 0 31.5 14.1 31.5 31.5v1c0 17.4-14.1 31.5-31.5 31.5h-29V770.1c0 34.1 28.6 61.8 64 61.8h576c35.3 0 64-27.7 64-61.8v-772.3zM711.6 319.29999999999995c-35.4 17.8-15.4 4.2-58.9 22.4s-58.2 24.1-58.2 24.1l-0.4 21.3s20.7 12.5 25.8 51.9c10.2-3 13.6 12 14.2 21.6 0.6 9.3 6 38.1-6.4 35.5 2.5 19.3-1.8 36.7-2.7 45.9-3.1 32.4-25.3 66.1-81.2 68.6-47.6-2.5-78.5-36.3-81.6-68.6-0.9-9.2-5.1-26.6-2.6-45.9-12.4 2.6-7.1-26.3-6.5-35.5 0.6-9.6 4-24.6 14.2-21.6 5.1-39.4 25.5-52 25.5-52l-0.4-21.5s-14.4-6.3-57.9-24.5-23.8-3.8-59.2-21.5c-56-28.1-56-105.4-56-105.4v-0.1c0-11.7 9.4-21.2 21-21.2h406.4c11.6 0 21 9.5 21 21.2v0.1c-0.2-0.2-0.2 77.1-56.1 105.2z"  horiz-adv-x="1024" />

    
    <glyph glyph-name="fangda" unicode="&#58897;" d="M63.99 790.558V522.16c0-18.936 15.367-34.305 34.304-34.305 18.936 0 34.304 15.37 34.304 34.305V715.844l218.107-218.176c12.83-12.83 33.62-12.83 46.516 0 12.83 12.898 12.83 33.686 0 46.516L179.045 762.292h193.683c18.935 0 34.304 15.369 34.304 34.304 0 18.935-15.369 34.304-34.304 34.304H104.331C79.29 830.9 63.99 818 63.99 790.558zM917.689 830.9H649.29c-18.935 0-34.304-15.369-34.304-34.304 0-18.936 15.369-34.304 34.304-34.304h193.683L624.798 544.184c-12.83-12.829-12.83-33.618 0-46.516 12.898-12.83 33.686-12.83 46.515 0l218.108 218.176V522.16c0-18.936 15.369-34.305 34.304-34.305 18.936 0 34.304 15.37 34.304 34.305V790.558C958.03 818 942.8 830.9 917.69 830.9zM104.331-61.013H372.73c18.935 0 34.304 15.368 34.304 34.304s-15.369 34.304-34.304 34.304H179.046l218.176 218.108c12.83 12.829 12.83 33.618 0 46.515-12.898 12.83-33.686 12.83-46.516 0L132.6 54.042V247.725c0 18.936-15.368 34.305-34.304 34.305-18.937 0-34.305-15.37-34.305-34.305v-268.398c0-27.443 15.299-40.34 40.341-40.34zM958.03-20.672V247.725c0 18.936-15.369 34.305-34.305 34.305-18.935 0-34.304-15.37-34.304-34.305v-193.683L671.313 272.218c-12.829 12.83-33.618 12.83-46.515 0-12.83-12.898-12.83-33.686 0-46.515l218.176-218.108H649.291c-18.935 0-34.304-15.368-34.304-34.304s15.369-34.304 34.304-34.304h268.398c25.11 0 40.34 12.897 40.34 40.341z"  horiz-adv-x="1024" />

    
    <glyph glyph-name="qiye" unicode="&#58903;" d="M987.428571 52.419048h-34.133333V520.533333c0 73.142857-60.952381 134.095238-136.533333 134.095238h-204.8V722.895238c0 73.142857-60.952381 134.095238-136.533334 134.095238H204.8c-75.580952 0-136.533333-60.952381-136.533333-134.095238v-670.47619H34.133333c-19.504762 0-34.133333-14.628571-34.133333-34.133334s14.628571-34.133333 34.133333-34.133333h953.295238c19.504762 0 34.133333 14.628571 34.133334 34.133333-2.438095 19.504762-17.066667 34.133333-34.133334 34.133334zM543.695238 654.628571v-604.647619H136.533333V722.895238c0 36.571429 31.695238 68.266667 68.266667 68.266667h273.066667c36.571429 0 68.266667-29.257143 68.266666-68.266667l-2.438095-68.266667z m341.333333-602.209523H611.961905v536.380952h204.8c36.571429 0 68.266667-29.257143 68.266666-68.266667v-468.114285zM441.295238 654.628571h-202.361905c-19.504762 0-34.133333-14.628571-34.133333-34.133333 0-19.504762 14.628571-34.133333 34.133333-34.133333h204.8c19.504762 0 34.133333 14.628571 34.133334 34.133333-2.438095 19.504762-17.066667 34.133333-36.571429 34.133333z m0-199.923809h-202.361905c-19.504762 0-34.133333-14.628571-34.133333-34.133333s14.628571-34.133333 34.133333-34.133334h204.8c19.504762 0 34.133333 14.628571 34.133334 34.133334s-17.066667 34.133333-36.571429 34.133333z m0-202.361905h-202.361905c-19.504762 0-34.133333-14.628571-34.133333-34.133333s14.628571-34.133333 34.133333-34.133334h204.8c19.504762 0 34.133333 14.628571 34.133334 34.133334s-17.066667 34.133333-36.571429 34.133333z m341.333333 202.361905h-68.266666c-19.504762 0-34.133333-14.628571-34.133334-34.133333s14.628571-34.133333 34.133334-34.133334h68.266666c19.504762 0 34.133333 14.628571 34.133334 34.133334s-14.628571 34.133333-34.133334 34.133333z m0-202.361905h-68.266666c-19.504762 0-34.133333-14.628571-34.133334-34.133333s14.628571-34.133333 34.133334-34.133334h68.266666c19.504762 0 34.133333 14.628571 34.133334 34.133334s-14.628571 34.133333-34.133334 34.133333z"  horiz-adv-x="1024" />

    
    <glyph glyph-name="fapiao-copy" unicode="&#58883;" d="M388.14988516 451.11360123v-47.75147507h94.23745121v-37.6274869H388.14988516v-48.25767481h94.23745121v-72.04904434h59.22532727v72.04904434h90.94715579v48.25767481H541.61266363v37.6274869h90.9471558v47.75147507h-73.56764356l99.04634501 162.49000121H593.83556628l-57.8754624-102.84284096c-10.2083541-18.39191089-17.80134521-32.81859311-22.7789717-43.11131397-12.90808384 25.81616848-38.63988638 72.80834436-78.46090412 142.83259141l-1.68733109 3.12156352h-67.15578461l98.11831311-162.49000121h-75.84554031zM910.96947815 752.21786572C905.65438462 782.58982854 874.8605888 805.875 837.90803433 805.875L186.00759891 804.44076837c-36.86818854 0-67.66198352-23.36953821-72.97707706-53.65713428-1.8560646-5.56819299-2.78409649-11.38948627-2.78409649-17.46387818v-667.17078359L233.67470722-36.94696810999994l94.9967504 82.34176602 92.04392119-83.26979791 92.21265308 83.26979791 95.16548392-82.84796493L701.06546808 44.888599l91.95955444-82.42613279 119.63178671 104.86763828 1.09676542 667.3395163c0.08436676 6.07439273-0.92803189 11.98005195-2.7840965 17.54824494zM793.61558819 24.89372295999999L717.9387814 98.03953353999998l-35.09649069-0.33746622-75.08624112-70.95227975-79.47330277 69.09621515-30.96252849 0.50619973-76.77357304-69.26494867-79.47330276 71.88031165-24.04447064 0.33746622-84.11346305-72.97707706L157.6604342 89.09667754999998V733.31975592c0 13.07681736 12.65498437 23.79137119 28.26279878 23.79137035l651.90043459 1.43423164c15.52344763 0 28.17843201-10.63018707 28.17843201-23.79137119l-0.92803189-645.74167511-71.45847949-64.11858864z"  horiz-adv-x="1024" />

    
    <glyph glyph-name="jiaose" unicode="&#59246;" d="M52.139251-101.722656c-14.742623 0-26.851732 11.928484-26.851732 26.566345v87.404501c0 172.453651 104.578339 325.370888 266.331757 389.590348l27.881296 11.079546-23.65828 18.391251C235.665223 478.257419 201.216397 548.473633 201.216397 623.859338c0 134.999224 110.676244 244.924067 246.705031 244.924067s246.715868-109.928456 246.715868-244.924067c0-75.385705-34.546363-145.507994-94.629507-192.546391l-15.963649-12.484809c-23.65828-21.024765-70.028364-35.294151-130.487208-39.994017h-2.348127c-1.033176 0-2.062739 0.097538-3.092302 0.097538-9.392507 0-19.153489-0.3757-29.109546-1.217414l-10.606308-0.848938-4.692641-0.657475c-185.317773-22.061554-324.814563-178.558781-324.814563-363.959642v-60.834544h405.45646l2.250589-4.504791c6.101517-12.293347 12.954434-24.413293 20.558752-35.864926l8.355719-12.676272H52.139251v-0.090313zM447.921428 815.748254c-106.45684 0-193.008791-86.085938-193.008791-191.885303 0-105.802977 86.649488-191.881691 193.008791-191.881691 106.45684 0 193.113554 86.082326 193.113554 191.881691-0.093925 105.799365-86.656713 191.885303-193.113554 191.885303z m0 0M447.921428 864.094377c-133.49281 0-242.016002-107.771791-242.016002-240.231426 0-73.879292 33.8925-142.693855 92.84493-188.785776l30.045185-23.47043-35.485614-14.08876C133.341085 333.970451 29.980159 182.725803 29.980159 12.251803v-87.404502c0-12.018796 9.952445-21.866479 22.159092-21.866478h454.647908l-3.569153 5.342891a332.205743 332.205743 0 0 0-20.840528 36.421252l-0.942863 1.968814H74.200804v65.538023c0 187.846525 141.284978 346.305341 328.661879 368.551132l4.790178 0.664701 10.79777 0.93925c10.042757 0.751401 19.897665 1.213801 29.47441 1.213801 1.130713 0 2.163889 0 3.287377-0.090312h1.784576c59.613519 4.692641 104.957652 18.488789 127.860919 38.957228l16.147887 12.578734c59.053581 46.091921 92.848543 114.906484 92.848543 188.879701-0.007225 132.376547-108.530417 240.148338-241.932915 240.148339z m0-436.816595c-109.08313 0-197.701432 88.155902-197.701432 196.585169 0 108.425654 88.712227 196.577944 197.701432 196.577944 109.086742 0 197.802582-88.15229 197.802582-196.577944-0.090313-108.432879-88.809765-196.585169-197.802582-196.585169z m0 0M821.085726-108.474423c-10.230607 0-20.652678 4.414478-27.126282 11.643096-7.514006 8.167868-31.07836 29.373259-49.476836 29.373259-18.120313 0-41.681056-20.840528-49.191449-28.809709-6.473605-7.047993-16.80175-11.364933-26.938432-11.364933a34.904001 34.904001 0 0 0-13.239822 2.532364l-0.281775 0.0867-63.175447 35.211064-0.281775 0.18785c-13.517985 9.854907-18.683864 27.501983-12.304184 41.868905 0 0.0867 5.259804 12.394497 5.259804 23.185042 0 33.520412-27.321358 60.834545-60.830932 60.834545h-2.163889c-13.04836 0-23.091117 10.425683-26.284569 27.032357-0.56355 2.91529-5.350116 29.008396-5.350117 50.134312 0 21.024765 4.786566 47.219022 5.350117 50.130699 3.193452 16.711437 13.051972 27.13712 25.912481 27.13712h2.532364c33.509575 0 60.830932 27.314133 60.830932 60.823707 0 9.85852-4.414478 20.938065-5.259803 23.192267-6.37968 14.554773-1.502801 32.295774 11.552783 41.305355l1.123488 0.755013 65.342948 35.864927 0.18785 0.0867c4.692641 1.972426 9.204657 2.911677 14.175461 2.911677 10.143907 0 20.46844-4.316941 26.942045-11.169858 9.294969-9.479207 31.446836-27.606745 48.440047-27.606746 21.404078 0 47.876498 26.858957 48.161886 27.133508 6.571142 6.849305 16.6139 10.895308 26.754194 10.895308a34.860651 34.860651 0 0 0 13.232598-2.53959l0.285387-0.0867 64.30616-35.579538 0.18785-0.191463c13.521597-9.85852 18.774176-27.41167 12.390884-41.77498-0.559938-1.224638-5.350116-12.958047-5.350116-23.192267 0-33.509575 27.321358-60.823707 60.834544-60.823707h2.160277c13.051972 0 23.094729-10.425683 26.280957-27.03597 0.946476-4.790179 5.350116-29.759797 5.350116-50.130699 0-20.374515-4.407253-45.351358-5.350116-50.1307-3.18984-16.711437-13.138672-27.13712-25.905257-27.13712h-2.535977c-33.513187 0-60.834545-27.314133-60.834544-60.834544 0-9.284132 3.659465-19.243802 5.259804-23.098342 6.386905-14.540323 1.499189-32.288549-11.549171-41.301743l-1.130714-0.7514-63.453609-35.117139-0.18785-0.0867c-5.165879-2.629902-9.580357-3.561928-14.652311-3.561927z m-76.603118 87.679052c16.519975 0 34.260975-6.946843 52.756988-20.742991a185.679023 185.679023 0 0 0 17.556763-15.017173l2.810527-2.723827 51.073563 28.249771-1.311339 4.23024c-2.348127 6.939618-5.071954 17.650688-5.071953 28.726621 0 47.497185 35.489226 88.047527 82.516785 94.156269l3.850928 0.466013 0.56355 3.847315c1.408876 9.107119 3.092302 22.245791 3.092303 32.859324 0 10.50877-1.687039 23.661892-3.092303 32.855712l-0.56355 3.850928-3.850928 0.466013c-47.027559 6.105129-82.516785 46.662697-82.516785 94.159881 0 11.079546 2.723827 21.682241 5.071953 28.730234l1.311339 4.12909-50.5064 28.069146-2.810527-2.62629c-3.663078-3.475228-9.674282-8.644719-17.274987-13.98761-18.026388-12.683497-35.203838-19.157102-51.06995-19.157102-16.053962 0-33.332562 6.574755-51.543188 19.532802a162.678219 162.678219 0 0 0-17.462838 14.366923l-2.723827 2.622677-52.475213-28.820546 1.314951-4.12909c2.344514-6.950455 5.068341-17.650688 5.068341-28.639921 0-47.497185-35.485613-88.058364-82.520398-94.152657l-3.847315-0.466013-0.559938-3.850928c-1.412489-9.107119-3.095915-22.155479-3.095915-32.859324 0-10.613533 1.687039-23.65828 3.095915-32.859324l0.559938-3.847315 3.847315-0.473238c47.034784-6.097904 82.520398-46.648247 82.520398-94.156269 0-11.166246-2.723827-21.776166-5.068341-28.816933l-1.314951-4.038778 49.101136-27.501983 2.814139 2.723827a172.648726 172.648726 0 0 0 17.376138 14.641473c18.488789 13.427672 36.041939 20.183052 52.377676 20.183053z m0 0M991.754801 182.545177c-2.723827 14.359698-10.982008 23.275355-21.685853 23.275355h-2.163889c-36.143089 0-65.523573 29.391322-65.523573 65.53441 0 11.820109 5.635504 24.868468 5.725817 25.063544 5.534354 12.387272 0.939251 27.592295-10.797771 36.146701l-63.832922 35.294151a31.125323 31.125323 0 0 1-11.455245 2.156664c-8.919269 0-17.650688-3.558315-23.372893-9.479207-0.281775-0.281775-27.97522-28.531546-51.449262-28.531546-23.55713 0-51.539575 28.719396-51.817738 29.004784-5.635504 6.007592-14.739011 9.674282-23.564355 9.674282-4.313328 0-8.258181-0.848938-12.394497-2.535977l-64.963635-35.680688-0.8381-0.559938c-11.173471-7.792168-15.494024-23.098342-9.952445-35.680689 1.314951-3.186227 5.631892-14.540323 5.631892-24.962393 0-36.146701-29.380484-65.527185-65.523573-65.527186h-2.532365c-10.42207 0-18.589939-8.922882-21.313765-23.282579-0.184238-1.130713-5.256191-28.069146-5.256192-49.191449 0-20.750215 4.689028-46.373696 5.256192-49.281761 2.720214-14.366923 10.985621-23.28258 21.685853-23.282579h2.160277c36.143089 0 65.523573-29.384097 65.523573-65.527186 0-12.018796-5.722204-25.063543-5.722205-25.063543-5.537967-12.398109-0.942863-27.606745 10.794158-36.146702l62.615509-34.925675a31.114485 31.114485 0 0 1 11.455246-2.160277c8.919269 0 17.838538 3.764228 23.470429 9.95967 0.278163 0.27455 28.719396 30.323347 52.659451 30.323347 24.319368 0 52.666676-30.608735 52.948452-30.883285 5.635504-6.202667 14.735398-10.049982 23.654667-10.049982 4.418091 0 8.175093 0.841713 13.04836 2.998377l63.085133 34.925676 0.845326 0.567162c11.173471 7.784943 15.486799 23.094729 9.85852 35.666239-1.694264 4.129091-5.635504 14.836548-5.635505 24.976843 0 36.143089 29.380484 65.527185 65.523573 65.527186h2.532365c10.425683 0 18.589939 8.919269 21.313765 23.271742 0.845326 4.703478 5.259804 29.203471 5.259804 49.292598 0.007225 19.80374-4.403641 44.40127-5.252579 49.093911z m-37.830127-82.79856l-1.130714-7.326156-7.412855-0.93925c-44.69027-5.823354-78.48162-44.31457-78.48162-89.553941 0-10.425683 2.626289-20.558753 4.779341-27.22382l2.629902-7.788555-57.543555-31.829761-5.252579 5.158653a170.773838 170.773838 0 0 1-16.993212 14.551161c-17.6543 13.145897-34.546363 19.807352-49.946462 19.807352-15.302561 0-32.006773-6.571142-49.570761-19.431652a172.182714 172.182714 0 0 1-16.895675-14.272998l-5.256191-5.162266-55.571128 31.07836 2.532364 7.788556c2.160277 6.665067 4.884104 16.808975 4.884104 27.321358 0 45.152671-33.70465 83.640274-78.485233 89.55394l-7.322543 0.939251-1.127101 7.326155c-1.412489 9.294969-3.193452 22.719029-3.193452 33.607112 0 10.982008 1.687039 24.30853 3.193452 33.509575l1.127101 7.326155 7.322543 0.939251c44.683045 5.823354 78.485232 44.303732 78.485233 89.553941 0 10.425683-2.633514 20.562365-4.793791 27.22382l-2.622677 7.799393 58.854893 32.292161 5.259804-4.978029a151.804586 151.804586 0 0 1 16.9896-13.90091c17.372525-12.387272 33.701037-18.582714 48.815748-18.582714 14.926861 0 31.168673 6.097904 48.346123 18.300939a146.429182 146.429182 0 0 1 16.805362 13.61191l5.256191 4.884103 56.893305-31.54076-2.532365-7.788556c-2.163889-6.672292-4.793791-16.899287-4.793791-27.321357 0-45.152671 33.708262-83.640274 78.485233-89.553941l7.416468-0.939251 1.1271-7.326155c1.412489-9.291357 3.193452-22.719029 3.193453-33.607112-0.281775-10.786933-2.066352-24.210993-3.471615-33.505962z m0 0M744.670458 42.015212c-50.506399 0-91.623905 41.11028-91.623905 91.620292 0 50.502787 41.117505 91.620292 91.623905 91.620292s91.623905-41.117505 91.623905-91.620292c0-50.600325-41.117505-91.620292-91.623905-91.620292z m0 139.489565c-26.382107 0-47.872885-21.490778-47.872885-47.869273 0-26.385719 21.490778-47.876498 47.872885-47.876497 26.378494 0 47.88011 21.490778 47.88011 47.876497 0 26.378494-21.505228 47.869273-47.88011 47.869273z m0 0M744.670458 220.563155c-47.872885 0-86.927651-38.957229-86.927651-86.927651 0-47.977648 38.950004-86.927651 86.927651-86.927651s86.927651 38.950004 86.927651 86.927651c0 47.869273-38.953616 86.927651-86.927651 86.927651z m0-139.597939c-29.008396 0-52.565526 23.560742-52.565526 52.579976 0 29.004784 23.55713 52.565526 52.565526 52.565526 29.004784 0 52.572751-23.55713 52.572751-52.565526-0.003613-28.918084-23.567967-52.579976-52.572751-52.579976z m0 0"  horiz-adv-x="1024" />

    
    <glyph glyph-name="shoukuan" unicode="&#58946;" d="M705.9456 814.08c22.1184 0 40.96-18.6368 40.96-40.96v-407.552h192.512L570.1632-15.36c-31.744-32.768-84.5824-32.768-116.3264 0L84.7872 365.568h192.512V773.3248c0 22.528 18.432 40.96 40.96 40.96h387.6864m0 61.2352H318.0544c-56.32 0-102.4-46.08-102.4-102.1952V427.008H80.0768c-52.4288 0-79.2576-62.8736-42.8032-100.5568l377.0368-392.3968c53.248-55.5008 142.1312-55.5008 195.3792 0l377.0368 392.3968c36.4544 37.6832 9.6256 100.5568-42.8032 100.5568h-135.5776V773.3248c0 56.1152-46.08 102.1952-102.4 102.1952zM624.4352 340.5824c19.0464 0 34.6112-15.5648 34.6112-34.6112 0-19.0464-15.36-34.6112-34.6112-34.6112h-69.0176v-43.2128c0-23.7568-19.456-43.2128-43.2128-43.2128-23.7568 0-43.2128 19.2512-43.2128 43.2128V271.36h-69.2224c-19.0464 0-34.6112 15.5648-34.6112 34.6112 0 19.0464 15.5648 34.6112 34.6112 34.6112H468.992v34.6112h-69.2224c-19.0464 0-34.6112 15.5648-34.6112 34.6112 0 19.0464 15.5648 34.6112 34.6112 34.6112H468.992v2.2528L391.9872 523.264c-13.5168 13.5168-13.5168 35.6352 0 49.152 13.5168 13.5168 35.6352 13.5168 49.152 0l70.0416-70.0416 70.4512 70.4512c13.7216 13.5168 35.6352 13.5168 49.3568 0 13.5168-13.5168 13.5168-35.6352 0-49.152l-75.776-75.776v-3.4816h69.0176c19.0464 0 34.6112-15.5648 34.6112-34.6112 0-19.0464-15.36-34.6112-34.6112-34.6112h-69.0176v-34.6112h69.2224z m0 0"  horiz-adv-x="1024" />

    
    <glyph glyph-name="caiwu" unicode="&#58905;" d="M662.0416 235.05408a18.91328 18.91328 0 1 1 0 37.82656h-130.54976l119.13216 190.62784a18.93376 18.93376 0 0 1-6.01088 26.06592 18.81088 18.81088 0 0 1-26.03008-6.016L497.36704 289.6384 376.15616 483.56352a18.85184 18.85184 0 0 1-26.06592 6.016 18.93376 18.93376 0 0 1-6.016-26.06592l119.13216-190.62784H332.65152a18.9184 18.9184 0 0 1 0-37.82656H478.4128v-44.48768H332.65152a18.94912 18.94912 0 0 1-18.9184-18.91328 18.90304 18.90304 0 0 1 18.9184-18.9184H478.4128v-145.75616c0-10.4448 8.4736-18.92352 18.91328-18.92352s18.91328 8.47872 18.91328 18.92352v145.80224h145.80224a18.8928 18.8928 0 0 1 18.9184 18.90304 18.944 18.944 0 0 1-18.9184 18.92352h-145.75616v44.48256h145.75616v-0.04096zM132.40832 858.16832H851.2a18.92352 18.92352 0 0 1 18.9184 18.91328A18.92352 18.92352 0 0 1 851.2 895.99488H132.40832a18.9184 18.9184 0 0 1 0-37.82656zM56.74496 744.6784h870.1184a18.91328 18.91328 0 0 1 0 37.82656H56.74496a18.9184 18.9184 0 0 1 0-37.82656zM926.86336 669.01504H94.57664C42.4448 669.01504 0 626.56512 0 574.4384v-605.30176c0-52.1728 42.4448-94.57664 94.57664-94.57664h832.28672c52.16768 0 94.57664 42.40384 94.57664 94.57664V574.4384c0 52.12672-42.40384 94.57664-94.57664 94.57664z m56.75008-699.8784c0-31.2832-25.46688-56.75008-56.75008-56.75008H94.57664c-31.2832 0-56.74496 25.46688-56.74496 56.75008V574.4384c0 31.2832 25.46176 56.74496 56.74496 56.74496h832.28672c31.2832 0 56.75008-25.46176 56.75008-56.74496v-605.30176z"  horiz-adv-x="1024" />

    
    <glyph glyph-name="icon" unicode="&#58898;" d="M511.867 271.51700000000005l292.16 292.155c12.27 12.28 32.186 12.28 44.457 0 12.28099999-12.27 12.281-32.186 0-44.457l-314.388-314.388c-12.27-12.28-32.186-12.28-44.457 0l-314.387 314.388c-6.14 6.136-9.211 14.183-9.211 22.228s3.071 16.092 9.211 22.228c12.27 12.28 32.186 12.28 44.457 0l292.159-292.155z"  horiz-adv-x="1024" />

    
    <glyph glyph-name="iconjian" unicode="&#58884;" d="M717.09184214 353.18794708999997h-410.1317627c-16.98779924 0-30.7590824 13.77023422-30.75908241 30.75803348s13.77023422 30.76537592 30.75908241 30.76537593h410.13281163c16.99566616 0 30.7590824-13.77757668 30.7590824-30.76537593-0.00052447-16.98884817-13.76446518-30.75803347-30.7590824-30.75803348z"  horiz-adv-x="1024" />

    
    <glyph glyph-name="up" unicode="&#58885;" d="M512.133 496.483l-292.16-292.155c-12.27-12.28-32.186-12.28-44.457 0-12.28099999 12.27-12.281 32.186 0 44.457l314.388 314.388c12.27 12.28 32.186 12.28 44.457 0l314.387-314.388c6.14-6.136 9.211-14.183 9.211-22.228s-3.071-16.092-9.211-22.228c-12.27-12.28-32.186-12.28-44.457 0l-292.159 292.155z"  horiz-adv-x="1024" />

    
    <glyph glyph-name="kaipiao" unicode="&#58934;" d="M448-128H127.616A127.68 127.68 0 0 0 0-0.384V229.888c23.616 3.904 45.376 13.44 64 27.2v-256.64C64-35.2 92.8-64 128.448-64H448v-64z m576 544V576l-64-63.296V767.552C960 803.2 931.2 832 895.552 832H128.448C92.8 832 64 803.2 64 767.552v-256.64a148.352 148.352 0 0 1-64 27.2V768.384C0 838.848 57.28 896 127.616 896h768.768C966.848 896 1024 838.72 1024 768.384V416zM231.872 643.904c0 17.664 14.208 32 32.64 32h510.72a32.64 32.64 0 0 0 32.64-32c0-17.664-14.272-32-32.64-32h-510.72a32.64 32.64 0 0 0-32.64 32z m0-201.344c0 17.664 14.848 32 32.192 32h383.552c17.792 0 32.256-14.848 32.256-32 0-17.728-14.912-32-32.256-32H264.064a32.448 32.448 0 0 0-32.192 32z m0-201.408c0 17.664 13.696 32 31.808 32H520c17.6 0 31.872-14.848 31.872-32 0-17.664-13.76-32-31.872-32H263.68a32.256 32.256 0 0 0-31.808 32zM512-20.096l312.512 315.648L932.48 187.584 619.904-128H512V-20.096z m502.784 290.048l-48-54.208-107.968 107.904 51.136 51.2a27.776 27.776 0 0 0 39.872 0l64.96-65.024a27.776 27.776 0 0 0 0-39.872z"  horiz-adv-x="1024" />

    
    <glyph glyph-name="zhangkuan" unicode="&#59097;" d="M996.218828 746.965333c0 26.256808-16.500364 63.473778-95.277252 91.615677-53.232485 18.999596-123.525172 29.474909-197.87895 29.474909-74.393859 0-144.686545-10.510222-197.884121-29.474909-78.74198-28.176808-95.277253-65.358869-95.277252-91.615677 0-3.904646-0.550788-7.83903 0.201696-11.707474-0.752485-2.434586-2.019556-4.928646-2.019555-7.399435v-114.756525c0-3.970586 0.378828-7.90497 1.095111-11.742384a25.863758 25.863758 0 0 1-1.095111-7.394262v-56.318708c-34.232889 3.459879-57.787475 5.202747-88.429899 5.202748-74.494707 0-144.302545-10.510222-197.439354-29.474909-78.74198-28.10699-95.070384-65.287758-95.070383-91.545859 0-4.005495 2.565172-7.943758 3.317656-11.777293-0.752485-2.429414 1.030465-4.929939 1.030465-7.359353v-114.761697c0-3.970586 0.373657-7.873939 1.131313-11.708768-0.752485-2.535434-1.131313-4.929939-1.131313-7.35806v-114.82893c0-3.968 0.373657-7.873939 1.131313-11.742384-0.752485-2.46303-1.131313-4.929939-1.131313-7.328323v-114.757818c0-26.256808 14.479515-63.437576 93.187879-91.580768C177.815273-90.373172 247.073616-100.848485 321.573495-100.848485c74.494707 0 144.161616 10.510222 197.267394 29.474909 78.736808 28.143192 94.656646 65.32396 94.656646 91.580768v75.455353c34.236768-3.527111 58.817939-5.273859 89.459071-5.273858 74.358949 0 141.636525 10.510222 194.86901 29.480081 78.74198 28.141899 92.267313 65.353697 92.267313 91.616969V326.206061a24.759596 24.759596 0 0 1-1.131313 7.429171 59.79798 59.79798 0 0 1 1.131313 11.676445V460.101818a24.746667 24.746667 0 0 1-1.131313 7.429172c0.752485 3.731394 1.131313 7.564929 1.131313 11.676444v114.757819c0 2.565172-0.378828 5.065697-1.131313 7.429171 0.752485 3.762424 1.131313 7.630869 1.131313 11.707475v114.756525c0 2.535434 2.702222 5.001051 1.949738 7.394263 0.752485 3.767596 4.176162 7.707152 4.176161 11.712646zM703.062626 141.26804c-31.01996 0-61.323636 1.913535-89.874101 5.682425 0.27798 2.328566 0.307717 4.69204 0.307717 7.085252v75.491556c34.236768-3.527111 58.92396-5.272566 89.459071-5.272566 74.29301 0 149.884121 10.508929 203.186424 29.508525 17.020121 6.131071 15.480242 12.908606 49.711839 20.269253v-62.545455c0-7.501576-18.106182-26.298182-66.757818-43.688081-47.825455-17.117091-117.255758-26.530909-186.033132-26.530909z m186.035717 160.394344c-48-17.122263-114.797899-26.536081-183.404606-26.536081-30.87903 0-62.444606 1.92-91.172202 5.752242 0.243071 2.292364-1.025293 4.657131-1.025293 7.085253V363.455354c34.236768-3.527111 58.611071-5.268687 89.459071-5.268687 74.258101 0 149.81301 10.505051 203.186424 29.474909 17.020121 6.096162 15.475071 12.904727 49.711839 20.23305v-62.581656c0.002586-7.49899-18.108768-26.26198-66.755233-43.650586z m0 133.893172c-48-17.115798-114.797899-26.529616-183.404606-26.529617-30.74198 0-62.237737 1.949737-91.066181 5.747071 0.237899 2.297535-0.272808 4.657131-0.272809 7.090424 0 26.223192-8.904404 63.43499-87.681292 91.611798-17.458424 6.160808-50.121697 11.504485-50.121697 15.853899v12.458667c0-7.458909 19.621495-14.241616 36.530424-20.266667 53.136808-19.000889 119.449859-29.474909 193.944565-29.474909 74.46497 0 148.000323 10.510222 201.135839 29.474909 16.98004 6.05996 13.454222 12.873697 47.687111 20.266667v-62.580364c0.006465-7.500283-18.104889-26.258101-66.751354-43.651878z m-1.541171 133.894464c-48.924444-17.146828-117.293253-26.565818-187.580768-26.565818-70.353455 0-137.69697 9.41899-186.621414 26.565818-49.772606 17.358869-64.601212 36.156768-64.601212 43.651879v62.549333c0-7.39297 28.449616-14.170505 45.808485-20.266666 54.504727-19.035798 126.57002-29.511111 202.574868-29.511111 75.999677 0 153.338828 10.510222 207.843556 29.511111 17.424808 6.125899 15.848727 12.938343 50.874182 20.266666v-62.549333c0.001293-7.495111-18.519919-26.29301-68.297697-43.651879z m-3.701657 133.828525c-47.928889-17.117091-112.121535-26.496-180.792889-26.496-68.716606 0-132.93899 9.378909-180.803232 26.496-48.681374 17.428687-61.555071 36.186505-61.555071 43.650586 0 7.535192 12.873697 26.329212 61.555071 43.686788 47.89398 17.117091 112.085333 26.501172 180.83297 26.501172 68.676525 0 132.869172-9.384081 180.803232-26.501172 48.646465-17.393778 61.520162-36.186505 61.520162-43.686788-0.034909-7.464081-12.908606-26.221899-61.560243-43.650586zM579.264646 82.787556v-62.580364c0-7.53002-21.055354-26.327919-69.73802-43.651879-47.965091-17.115798-116.26796-26.499879-184.909575-26.499879-68.676525 0-141.151677 9.384081-189.085738 26.499879-48.646465 17.322667-69.802667 36.121859-69.802667 43.651879v62.51701c34.231596-7.395556 33.722182-14.171798 50.666021-20.23305 53.171717-19.004768 126.571313-29.443879 201.00008-29.443879 74.430061 0 154.470141 10.475313 207.604364 29.443879 17.048566 6.089697 20.028768 12.872404 54.265535 20.296404z m-69.736727 27.632484c-47.934061-17.117091-116.233051-26.536081-184.909576-26.53608-68.711434 0-141.186586 9.41899-189.085737 26.53608-48.646465 17.393778-69.802667 36.115394-69.802667 43.614384v62.585536C99.961535 209.221818 99.452121 202.44299 116.39596 196.38303c53.272566-19.035798 126.707071-29.508525 201.00008-29.508525 74.32404 0 154.333091 10.510222 207.600485 29.508525 16.98004 6.061253 20.030061 12.840081 54.268121 20.269253v-62.617859c0-7.49899-21.055354-26.220606-69.736727-43.614384z m0 133.858263c-47.864242-17.114505-116.167111-26.493414-184.909576-26.493414-68.777374 0-141.257697 9.378909-189.050828 26.493414-48.681374 17.428687-69.837576 36.191677-69.837576 43.653172v62.584242C99.961535 343.051636 99.518061 336.237899 116.39596 330.214141c53.303596-19.000889 126.743273-29.476202 201.00008-29.476202 74.287838 0 154.333091 10.511515 207.600485 29.476202 16.914101 6.023758 20.030061 12.873697 54.268121 20.301576v-62.584242c0-7.461495-21.055354-26.224485-69.736727-43.653172z m-8.151919 133.898343C453.513051 361.055677 389.290667 351.676768 320.54303 351.676768c-68.778667 0-132.97002 9.384081-180.79806 26.499878-48.646465 17.389899-61.520162 36.187798-61.520162 43.651879s12.868525 26.258101 61.520162 43.651879c47.862949 17.115798 112.085333 26.529616 180.79806 26.529616 68.711434 0 132.93899-9.413818 180.83297-26.529616 48.681374-17.42998 61.555071-36.187798 61.555071-43.651879s-12.908606-26.258101-61.555071-43.651879z m0 0"  horiz-adv-x="1024" />

    
    <glyph glyph-name="huokuanhuikuan" unicode="&#58893;" d="M732.6208 274.4064a20.48 20.48 0 1 1 0 40.96h-207.2064v62.0544h207.2064a20.4544 20.4544 0 1 1 0 40.96h-207.2064v3.0464l191.488 187.008a20.48 20.48 0 0 1-28.5952 29.312l-183.6544-179.3024-190.8992 179.6096a20.5312 20.5312 0 0 1-28.0832-29.8496l198.784-187.008v-2.7904h-184.7552a20.48 20.48 0 1 1 0-40.96h184.7552v-62.0544h-184.7552a20.48 20.48 0 0 1 0-40.96h184.7552v-155.9552a20.4544 20.4544 0 1 1 40.96 0v155.9552h207.2064zM490.1632 2.8928l-367.2832 197.2992V602.2912l331.6224 162.4064a20.4544 20.4544 0 0 1 9.344 27.392 20.5312 20.5312 0 0 1-27.392 9.3952l-343.04-168.0384a20.48 20.48 0 0 1-11.4688-18.4064v-427.1104a20.48 20.48 0 0 1 10.7776-18.048l345.0624-185.344-93.2608-51.7888a20.48 20.48 0 1 1 19.8912-35.7888l126.0288 69.9904a20.5312 20.5312 0 0 1-0.2816 35.9424zM907.0336 616.704a20.4032 20.4032 0 0 1-10.1888 16.1024l-326.5024 187.4432 88.1408 12.5952c11.2128 1.6128 18.944 11.9552 17.3568 23.1424s-12.032 19.0208-23.1424 17.408l-147.0464-21.0432a20.48 20.48 0 0 1-7.296-38.016l368.7424-211.712 32.9984-409.344-337.408-161.9456a20.5056 20.5056 0 0 1 17.7664-36.9408l350.0544 168.0384a20.48 20.48 0 0 1 11.5456 20.1472l-35.0208 434.1248z"  horiz-adv-x="1024" />

    
    <glyph glyph-name="chanpin1" unicode="&#59088;" d="M519.82132149 417.89239312c-15.64264297 0-28.67817878 2.60710716-39.10660744 7.82132148l-216.38989448 104.2842865c-15.64264297 5.21421433-23.46396446 18.24975014-23.46396447 31.28528596s7.82132149 23.46396446 23.46396447 31.28528594L480.71471405 699.45996666c10.42842865 5.21421433 26.07107163 7.82132149 41.71371459 7.82132149 15.64264297 2.60710716 28.67817878 0 41.71371461-5.21421433l216.38989449-104.28428649c15.64264297-7.82132149 23.46396446-18.24975014 23.46396445-31.28528596s-7.82132149-23.46396446-23.46396445-31.28528594L564.14214326 428.32082176c-15.64264297-7.82132149-28.67817878-10.42842865-44.32082177-10.42842864zM279.96746254 561.28328706l216.38989448-104.28428652c5.21421433-2.60710716 15.64264297-5.21421433 23.46396447-5.21421431 10.42842865 0 18.24975014 2.60710716 26.07107163 5.21421431l216.38989448 106.89139367-216.38989448 104.28428651c-5.21421433 2.60710716-15.64264297 5.21421433-23.46396448 5.21421432-10.42842865 0-18.24975014-2.60710716-26.07107162-5.21421432L279.96746254 561.28328706zM475.50049973 58.111604690000036c-7.82132149 0-15.64264297 2.60710716-23.46396447 5.21421432L259.11060524 162.39589118000004c-23.46396446 10.42842865-41.7137146 33.89239312-41.7137146 54.74925043V475.24875068c0 18.24975014 13.03553581 31.28528595 33.89239311 31.28528596 7.82132149 0 15.64264297-2.60710716 23.46396447-5.21421433l192.92593002-96.46296501c23.46396446-10.42842865 41.7137146-33.89239312 41.7137146-54.74925042v-260.71071624c0-18.24975014-13.03553581-31.28528595-33.89239311-31.28528595z m-5.21421433 36.49950027c2.60710716 0 2.60710716-2.60710716 5.21421433-2.60710715v258.10360907c0 5.21421433-7.82132149 18.24975014-20.8568573 23.46396447L259.11060524 470.03453636c-2.60710716 0-2.60710716 2.60710716-5.21421433 2.60710717V214.53803444000005c0-5.21421433 7.82132149-18.24975014 20.85685731-23.46396446l195.53303718-96.46296502zM566.74925041 58.111604690000036c-18.24975014 0-33.89239312 13.03553581-33.89239311 31.28528595v260.71071624c0 20.8568573 18.24975014 44.32082176 41.7137146 54.74925042L767.49650192 501.31982231c7.82132149 2.60710716 15.64264297 5.21421433 23.46396446 5.21421433 18.24975014 0 33.89239312-13.03553581 33.89239312-31.28528596v-260.71071624c0-20.8568573-18.24975014-44.32082176-41.7137146-54.74925041L590.21321488 63.32581901000003c-7.82132149-2.60710716-15.64264297-5.21421433-23.46396447-5.21421432z m216.38989449 411.92293167L590.21321488 373.57157135c-13.03553581-5.21421433-20.8568573-18.24975014-20.85685731-23.46396447v-258.10360907s2.60710716 0 5.21421433 2.60710715l192.92593002 96.46296502c13.03553581 5.21421433 20.8568573 18.24975014 20.85685731 23.46396446V472.64164353c-2.60710716 0-2.60710716 0-5.21421433-2.60710717z"  horiz-adv-x="1024" />

    
    <glyph glyph-name="shouye" unicode="&#58916;" d="M875.5401819 383.30373803c-3.64654023-8.03948658-15.55616085-26.63388387-47.09840668-26.63388388h-18.8294986v-266.0182437c0-35.20933661-27.5718235-63.8251429-61.47577059-63.8251429H612.63744455c-33.95573533 0-61.47412765 28.61580629-61.47412764 63.8251429v63.18231211c-0.09124523 19.40738731-15.81921166 35.11973547-35.24632804 35.20933661h-7.828224c-19.42711637-0.08960114-35.15590429-15.8019493-35.24632804-35.20933661v-63.18231211c0-35.20933661-27.57017941-63.8251429-61.42069532-63.8251429h-135.61085724c-33.84558365 0-61.41740715 28.61580629-61.41740715 63.8251429v266.0182437h-18.88292978c-31.4879909 0-43.39843413 18.64782848-47.04497436 26.63388388-3.59310791 8.03784249-9.87097771 29.20684885 10.89029916 52.94635235l305.97728939 283.32780203c11.96223033 13.77070421 29.02024647 21.59564117 46.66765994 21.59564004 17.65070165 0 34.65528547-7.82575843 46.61916104-21.54220886l305.9756453-283.38123321c20.81553067-23.7395035 14.53766201-44.90850873 10.94455409-52.94635235z"  horiz-adv-x="1024" />

    
    <glyph glyph-name="bianji" unicode="&#59004;" d="M1069.565174-74.514425H28.242725a26.706204 26.706204 0 1 1 0-53.412407h1041.322449a26.706204 26.706204 0 1 1 0 53.412407zM69.362962 2.531144a29.925582 29.925582 0 0 1 7.682607 1.024348l172.675729 46.900484a29.267073 29.267073 0 0 1 12.145835 6.804595l542.538362 516.490666a25.681856 25.681856 0 0 1 8.19478 18.804094 25.974527 25.974527 0 0 1-8.19478 18.95043 29.267073 29.267073 0 0 1-39.730052 0l-469.224344-446.32286-91.166931 86.776871a27.950054 27.950054 0 0 1-11.194655 6.365588l459.200371 437.103732a25.828192 25.828192 0 0 1 0 37.754524 29.267073 29.267073 0 0 1-39.656884 0l-538.440971-512.173773a26.413533 26.413533 0 0 1-7.975277-15.292046l-24.657509-172.163555a26.047695 26.047695 0 0 1 9.438631-23.779497 29.267073 29.267073 0 0 1 18.365088-6.511924z m51.217378 186.358086l37.315518 35.486326a26.706204 26.706204 0 0 1 6.731426-10.609314l91.093764-86.703703-28.462228-27.14521-124.385059-33.803469z m698.019685 439.518265a29.267073 29.267073 0 0 1 19.023597-7.316768 28.681731 28.681731 0 0 1 20.633287 8.633787l98.995873 101.922581a25.828192 25.828192 0 0 1 7.316768 19.169932 26.413533 26.413533 0 0 1-8.999624 18.584591L819.478037 889.103946a29.267073 29.267073 0 0 1-39.583716-1.463354L680.898448 785.644844a25.828192 25.828192 0 0 1 1.536521-37.681356zM802.283632 831.886819L897.03578 748.548829l-60.948679-62.777871-95.117986 83.33799z m0 0"  horiz-adv-x="1098" />

    
    <glyph glyph-name="iconfontyoujiantou" unicode="&#58886;" d="M785.57980823-102.78381935000004c15.11435623 14.32819952 15.11435623 37.57762266 0 51.90696618l-463.95856345 440.12896351 463.95856345 440.11294316c15.11435623 14.33735368 15.11435623 37.57876666 0 51.91612146-15.10634606 14.3362097-39.60767002 14.3362097-54.71401608 1e-8l-483.2714798-458.50123741c0 0-20.50759976-19.00165685-20.50759977-33.52782611 0-13.38755707 20.50759977-33.53583627 20.50759976-33.53583628L730.86464817-102.78381935000004C745.9721382-117.12117305000004 770.4734622-117.12117306000005 785.57980823-102.78381935000004z"  horiz-adv-x="1024" />

    
    <glyph glyph-name="wenhao" unicode="&#59157;" d="M464 111.648c0-26.51 21.49-48 48-48s48 21.49 48 48-21.49 48-48 48-48-21.49-48-48zM512-64C264.96-64 64 136.96 64 384S264.96 832 512 832s448-200.96 448-448-200.96-448-448-448z m0 831.713c-211.584 0-383.713-172.129-383.713-383.713 0-211.552 172.129-383.713 383.713-383.713 211.552 0 383.713 172.16 383.713 383.713 0 211.584-172.161 383.713-383.713 383.713zM512 222.305c-17.665 0-32 14.336-32 31.999v54.112c0 52.353 39.999 92.352 75.327 127.648 25.887 25.92 52.672 52.672 52.672 74.016 0 53.344-43.072 96.736-95.999 96.736-53.823 0-96-41.536-96-94.56 0-17.664-14.335-31.999-32-31.999s-32 14.336-32 32c0 87.423 71.774 158.559 160 158.559S672 598.72 672 510.08c0-47.904-36.32-84.191-71.424-119.296-27.84-27.776-56.575-56.512-56.575-82.335v-54.112c0-17.665-14.336-32.032-32.001-32.032z"  horiz-adv-x="1024" />

    
    <glyph glyph-name="calendar" unicode="&#58955;" d="M383.999712 794.368076h255.999808V742.400115H383.999712V794.368076z m436.582073 0h70.809546c36.889572 0 69.811148-14.694389 93.74713-38.246371A128.614304 128.614304 0 0 0 1023.999232 663.9361739999999v-661.452304a128.588704 128.588704 0 0 0-38.860771-92.211131A132.8639 132.8639 0 0 0 891.391331-127.999232H131.635101a132.121501 132.121501 0 0 0-92.72313 38.271971A128.665504 128.665504 0 0 0 0 2.4838700000000244V663.9361739999999c0 36.275173 14.975989 68.633549 38.911971 92.185531a132.275101 132.275101 0 0 0 92.72313 38.271971h73.779145V742.400115H131.635101c-20.940784 0-40.883169-8.806393-55.833558-22.527983-13.95199-14.719989-22.937583-34.355174-22.937583-55.935958v-661.452304c0-21.555184 8.959993-41.215969 22.937583-54.937559 14.950389-14.745589 34.892774-23.577582 55.807958-23.577582h759.80743c21.913584 0 41.855969 8.831993 55.833559 23.551982a74.214344 74.214344 0 0 1 23.935982 54.963159V663.9361739999999c0 21.555184-8.959993 41.190369-22.937583 55.910358A84.275137 84.275137 0 0 1 891.416931 742.400115h-70.835146V794.368076zM735.052249 896c30.054377 0 55.116759-24.601582 55.116758-55.091159v-140.774294c0-29.465578-25.062381-54.118359-55.116758-54.11836-31.078377 0-56.191958 24.678381-56.191958 54.11836V840.883241c0 30.463977 25.087981 55.116759 56.191958 55.116759z m-56.191958-710.501867h139.340695v-112.153516h-139.340695v112.127916zM204.799846 512.2050879999999h138.316697v-112.179116H204.799846v112.179116z m251.596612 0.972799h139.340695v-111.180716h-139.340695v111.180716z m222.463833 0h139.340695v-111.180716h-139.340695v111.180716z m1.023999-163.327877H819.199386v-112.153516h-139.315096v112.127916z m-222.515033 0h139.366295v-112.153516h-139.366295v112.127916z m-251.571011-1.971199h139.340695v-111.180717H205.798246V347.904411zM204.799846 184.499734h138.316697v-112.127916H204.799846v112.127916z m251.596612 0.998399h139.340695v-112.153516h-139.340695v112.127916zM289.023783 896c31.052777 0 56.140758-24.601582 56.140758-55.091159v-140.774294c0-29.465578-25.087981-54.118359-56.140758-54.11836-30.054377 0-55.116759 24.678381-55.116758 54.11836V840.883241C233.881425 871.347218 258.943806 896 288.998183 896z"  horiz-adv-x="1024" />

    
    <glyph glyph-name="cha" unicode="&#59372;" d="M997.574194 820.025806l-49.548388 49.548388-442.632258-442.632259-439.329032 442.632259L16.516129 820.025806l442.632258-442.632258L16.516129-65.23871l49.548387-49.548387 439.329032 442.632258L948.025806-114.787097l49.548388 49.548387-442.632259 442.632258z"  horiz-adv-x="1024" />

    
    <glyph glyph-name="shezhi" unicode="&#59126;" d="M947.2 469.333c-2.13334 17.0666-12.8 32-32 36.2666h-2.13334c-38.4 8.53333-66.1333 29.8667-87.4667 66.1333-19.2 32-25.6 72.5333-12.8 108.8 6.4 14.9333 2.13334 34.1333-12.8 46.9333-40.5334 38.4-89.6 68.2667-145.067 87.4667-14.9333 6.4-32 2.13334-46.9333-12.8C584.533 772.267 548.266 757.333 507.733 757.333c-36.2666 0-70.4 17.0666-100.267 46.9333-17.0666 17.0666-34.1333 14.9333-46.9333 10.6667-55.4666-23.4667-102.4-51.2-142.933-85.3333-14.9333-10.6667-21.3334-29.8667-14.9333-46.9333 10.6667-40.5334 6.4-78.9334-12.8-113.066-17.0666-29.8667-49.0667-53.3333-87.4667-64-2.13334 0-2.13334 0-4.26667-2.13334-12.8-6.4-21.3334-17.0666-27.7333-32v-2.13334c-6.4-32-8.53333-59.7334-8.53333-87.4667 0-27.7333 2.13334-59.7334 8.53333-85.3333 2.13334-17.0666 12.8-32 32-36.2666h2.13334c38.4-8.53333 66.1333-29.8667 87.4667-66.1333 19.2-32 25.6-72.5333 12.8-108.8-6.4-14.9333-2.13334-34.1333 12.8-46.9333 40.5334-38.4 89.6-68.2667 147.2-87.4667 2.13334 0 4.26667-2.13334 8.53333-2.13333h6.4c10.6667 0 23.4667 4.26667 34.1333 14.9333 23.4667 27.7333 59.7334 44.8 100.267 44.8 36.2666 0 70.4-17.0666 100.267-46.9333 8.53333-8.53333 19.2-14.9333 29.8667-14.9333 4.26667 0 10.6667 0 14.9333 2.13334 55.4666 23.4667 102.4 51.2 142.933 85.3333 14.9333 8.53333 21.3334 29.8667 14.9333 46.9333-10.6667 40.5334-6.4 78.9334 12.8 113.066 17.0666 29.8667 49.0667 53.3333 87.4667 64 2.13334 0 2.13334 0 4.26667 2.13334 12.8 6.4 21.3334 17.0666 27.7333 32v2.13334c6.4 32 8.53333 59.7334 8.53333 87.4667-2.13334 29.8667-4.26667 59.7334-10.6667 87.4667Zm-439.466-234.667c-83.2 0-149.333 66.1333-149.333 149.333s66.1333 149.333 149.333 149.333 149.333-66.1333 149.333-149.333-66.1333-149.333-149.333-149.333Z"  horiz-adv-x="1024" />

    
    <glyph glyph-name="shouye1" unicode="&#59030;" d="M657.692672-84.0192h-65.024v241.664a9.728 9.728 0 0 1-9.728 9.1648h-111.104a9.728 9.728 0 0 1-9.728-9.1136v-241.7152H221.059072a79.2576 79.2576 0 0 0-78.6432 80.5888v372.9408H69.660672a65.024 65.024 0 0 0-65.024 44.8512 70.144 70.144 0 0 0 20.1728 78.592L467.996672 877.6192a65.024 65.024 0 0 0 89.0368 0l442.4704-384.6656c22.528-19.456 30.3104-50.8928 19.456-78.592a65.024 65.024 0 0 0-64.9216-44.8512h-72.1408v-372.9408a79.2576 79.2576 0 0 0-78.6432-80.5888h-145.5104z m0 65.024h145.5104a14.9504 14.9504 0 0 1 13.6704 15.5648V434.4832h138.3936c3.8912 4.5568 4.5568 7.168 0 9.728L512.131072 828.928l-444.416-384.6656a5.8368 5.8368 0 0 1 0-6.4512h141.6192v-437.9648a14.9504 14.9504 0 0 1 13.6704-15.5648H398.364672V157.696a74.752 74.752 0 0 0 74.752 74.0864h109.7728a74.752 74.752 0 0 0 74.752-74.0864v-176.7424z"  horiz-adv-x="1024" />

    
    <glyph glyph-name="wenhao1" unicode="&#58911;" d="M506.485274 220.960894c-15.754726 0-29.930547-4.725274-40.96-15.754726q-16.544179-15.365721-16.544179-40.170548A54.689609 54.689609 0 0 1 465.525274 124.853631c11.029453-11.029453 25.17095-16.544179 40.96-16.544178a59.140291 59.140291 0 0 1 40.96 15.754726c11.029453 11.029453 17.333631 24.415821 17.333631 40.96s-5.514726 29.930547-16.544179 40.170547c-11.029453 11.029453-25.205274 15.766168-41.749452 15.766168z m14.175821 460.8c-58.293631 0-103.978905-16.544179-137.055821-50.410548-33.088358-33.088358-49.621095-77.984179-49.621095-135.488357h82.709452q0 51.989453 21.269453 80.341095c15.754726 22.882682 41.749453 33.866369 77.194726 33.866369 28.351642 0 51.2-7.871642 66.954726-23.626369 14.965274-15.754726 22.882682-37.024179 22.882682-64.586369 0-20.48-7.871642-39.381095-22.058905-57.504179l-13.386369-14.965273c-48.831642-43.328358-78.773631-75.615821-89.013631-97.674727-11.029453-20.48-15.754726-45.685274-15.754726-74.826368v-13.386369h84.288357v13.386369c0 18.901095 3.935821 36.234726 12.585475 51.989452 7.093631 14.175821 18.111642 28.351642 33.088358 40.96q55.536268 48.442637 66.165273 61.44c19.690547 25.17095 29.930547 57.504179 29.930548 96.107263 0 47.264179-15.754726 85.066369-47.264179 112.64-31.543777 28.294436-72.503777 41.72657-122.914324 41.72657zM512-128C229.227263-128 0 101.227263 0 384S229.227263 896 512 896 1024 666.772737 1024 384 794.772737-128 512-128z"  horiz-adv-x="1024" />

    
    <glyph glyph-name="yichuli" unicode="&#59211;" d="M893.5424 697.088v0.2048L702.3104 892.7744h-1.4848L697.6512 896H167.9872A66.304 66.304 0 0 1 102.4 829.3888V-61.44C102.4-97.9968 131.9424-128 167.9872-128H856.064A66.304 66.304 0 0 1 921.6-61.3888V668.5696l-28.0576 28.5184z m-226.304 131.6864h7.4752l155.8016-158.208v-7.5776h-119.808a43.8784 43.8784 0 0 0-43.4688 44.1856V828.8256z m191.3344-890.1632a2.816 2.816 0 0 0-2.56-2.6112H167.936a2.816 2.816 0 0 0-2.56 2.6112V829.44c0 1.28 1.28 2.6112 2.56 2.6112h436.224v-124.8768c0.1024-59.6992 47.7696-108.032 106.496-108.1344h147.8656V-61.44zM307.2 338.944L468.992 179.2 768 537.6h-68.4544l-230.912-225.024-114.944 67.072z"  horiz-adv-x="1024" />

    
    <glyph glyph-name="iconfontjiantouzuo" unicode="&#58915;" d="M309.58399999 832.294c-13.02300001-12.711-32.599-31.816-55.38599999-54.054C386.691 648.332 518.423 519.1600000000001 650.901 389.265c-135.675-133.566-267.109-262.952-398.507-392.311 25.771-24.939 45.768-44.286 63.432-61.382 150.09299999 147.081 301.99 295.93 455.779 446.632C616.221 533.576 463.434 682.4159999999999 309.58399999 832.294z"  horiz-adv-x="1024" />

    
    <glyph glyph-name="daochu2" unicode="&#59041;" d="M927.288889 310.044444c-22.755556 0-39.822222-17.066667-39.822222-39.822222v-227.555555c0-22.755556-17.066667-39.822222-39.822223-39.822223H170.666667c-22.755556 0-39.822222 17.066667-39.822223 39.822223v227.555555c0 22.755556-17.066667 39.822222-39.822222 39.822222-17.066667 0-34.133333-17.066667-34.133333-39.822222v-227.555555c0-62.577778 51.2-113.777778 113.777778-113.777778h682.666666c62.577778 0 113.777778 51.2 113.777778 113.777778v227.555555c0 22.755556-17.066667 39.822222-39.822222 39.822222zM716.8 486.4l-164.977778-164.977778V799.288889c0 22.755556-17.066667 39.822222-39.822222 39.822222s-39.822222-17.066667-39.822222-39.822222V327.111111L307.2 492.088889c-17.066667 17.066667-39.822222 17.066667-51.2 0-17.066667-17.066667-17.066667-39.822222 0-51.2l227.555556-227.555556c17.066667-17.066667 34.133333-17.066667 51.2-17.066666 5.688889 0 11.377778 5.688889 11.377777 5.688889l227.555556 227.555555c17.066667 17.066667 17.066667 39.822222 0 51.2-17.066667 22.755556-39.822222 22.755556-56.888889 5.688889z"  horiz-adv-x="1024" />

    
    <glyph glyph-name="index" unicode="&#58887;" d="M569.8048 874.7264a82.0736 82.0736 0 0 1-110.2848 0L13.568 451.2768a41.1392 41.1392 0 0 1 55.0912-61.1072l7.0912 6.7328V-45.05600000000004a82.2784 82.2784 0 0 1 82.2784-82.3808h239.4368v247.7056a57.9328 57.9328 0 0 0 57.9584 58.0096h112.6656a57.9328 57.9328 0 0 0 57.9584-58.0096v-247.7056h245.12a82.2784 82.2784 0 0 1 82.304 82.3808V391.5008c18.2784-16.5376 44.2112-15.2832 59.4176 1.664a41.1392 41.1392 0 0 1-2.9696 58.112L569.8048 874.7008z"  horiz-adv-x="1024" />

    


  </font>
</defs>
</svg>
